<?xml version="1.0" encoding="utf-8"?>
<!-- Generator: Adobe Illustrator 26.0.0, SVG Export Plug-In . SVG Version: 6.00 Build 0)  -->
<svg version="1.1" id="Camada_1" xmlns="http://www.w3.org/2000/svg" xmlns:xlink="http://www.w3.org/1999/xlink" x="0px" y="0px"
	 viewBox="0 0 83.5 83.5" style="enable-background:new 0 0 83.5 83.5;" xml:space="preserve">
<style type="text/css">
	.st0{fill-rule:evenodd;clip-rule:evenodd;fill:#9B9B9B;}
	.st1{fill-rule:evenodd;clip-rule:evenodd;fill:#CDCDCD;}
	.st2{fill-rule:evenodd;clip-rule:evenodd;fill:#FFFFFF;}
	.st3{font-family:'MyriadPro-Regular';}
	.st4{font-size:12px;}
</style>
<g>
	<path class="st0" d="M40.8,39.8v-28h2v28h29v2h-29v30h-2v-30h-29v-2H40.8z"/>
	<path class="st1" d="M39.9,42.9L21.2,61.6l0.7,0.7l18.7-18.7l-11.2,24l0.9,0.4l11.9-25.6L54,67.6l0.9-0.4l-11-23.6L62.3,62l0.7-0.7
		L44.6,42.9l23.6,11l0.4-0.9L43.4,41.3L69,29.3l-0.4-0.9l-24,11.2l18.7-18.7l-0.7-0.7L43.9,38.9l11.2-24l-0.9-0.4L42.3,40.1
		L30.3,14.5l-0.9,0.4l11.2,24L21.9,20.2l-0.7,0.7l18.7,18.7l-24-11.2l-0.4,0.9l25.6,11.9L15.5,53.2l0.4,0.9L39.9,42.9z"/>
	<circle class="st2" cx="41.8" cy="41.8" r="24"/>
</g>
<text transform="matrix(1 0 0 1 37.8178 9.9163)" class="st3 st4">N</text>
<text transform="matrix(1 0 0 1 2.0244 45.2879)" class="st3 st4">O</text>
<text transform="matrix(1 0 0 1 74.0884 45.288)" class="st3 st4">L</text>
<text transform="matrix(1 0 0 1 38.8081 82.1389)" class="st3 st4">S</text>
</svg>
