<svg xmlns="http://www.w3.org/2000/svg" viewBox="0 0 653.12 225.85"><defs><style>.cls-1{isolation:isolate;}.cls-2{fill:#fcdf9d;}.cls-3,.cls-4{fill:#edb081;}.cls-10,.cls-13,.cls-23,.cls-4,.cls-7{mix-blend-mode:multiply;}.cls-4,.cls-7{opacity:0.3;}.cls-5,.cls-7{fill:#0888b9;}.cls-6{fill:#174785;}.cls-10,.cls-8{fill:#ba2f42;}.cls-9{fill:#710745;}.cls-10,.cls-13{opacity:0.2;}.cls-11{fill:#ff814e;}.cls-12,.cls-13{fill:#d94f21;}.cls-14{fill:#16153d;}.cls-15{fill:#f1c77d;}.cls-16{fill:#7b0444;}.cls-17{fill:#b1254c;}.cls-18{fill:#fff99e;}.cls-19{fill:#f7c475;}.cls-20{fill:#ffda8f;}.cls-21{fill:#fffebb;}.cls-22{fill:#5b1440;}.cls-23{fill:#e0be80;opacity:0.5;}.cls-24{fill:#d56c56;}.cls-25{fill:#e1986f;}.cls-26{fill:#5f212e;}.cls-27{fill:#833741;}.cls-28{fill:#b35682;}.cls-29{fill:#fbf59d;}.cls-30{fill:#fbfb9b;}.cls-31{fill:#3b6176;}.cls-32{fill:#25395e;}.cls-33{fill:#5f8c8f;}</style></defs><g class="cls-1"><g id="Camada_1" data-name="Camada 1"><rect class="cls-2" x="256.04" y="146.13" width="63.27" height="16.87"/><path class="cls-3" d="M257.84,162.05a.35.35,0,0,1-.34-.35V147.84a.35.35,0,0,1,.34-.35.35.35,0,0,1,.35.35V161.7A.35.35,0,0,1,257.84,162.05Z"/><path class="cls-3" d="M261.16,162.05a.35.35,0,0,1-.35-.35V147.84a.35.35,0,0,1,.35-.35.35.35,0,0,1,.34.35V161.7A.35.35,0,0,1,261.16,162.05Z"/><path class="cls-3" d="M264.47,162.05a.35.35,0,0,1-.35-.35V147.84a.35.35,0,1,1,.7,0V161.7A.35.35,0,0,1,264.47,162.05Z"/><path class="cls-3" d="M267.78,162.05a.35.35,0,0,1-.34-.35V147.84a.35.35,0,1,1,.69,0V161.7A.35.35,0,0,1,267.78,162.05Z"/><path class="cls-3" d="M271.1,162.05a.35.35,0,0,1-.35-.35V147.84a.35.35,0,0,1,.35-.35.35.35,0,0,1,.34.35V161.7A.35.35,0,0,1,271.1,162.05Z"/><path class="cls-3" d="M274.41,162.05a.35.35,0,0,1-.34-.35V147.84a.35.35,0,0,1,.34-.35.35.35,0,0,1,.35.35V161.7A.35.35,0,0,1,274.41,162.05Z"/><path class="cls-3" d="M277.73,162.05a.35.35,0,0,1-.35-.35V147.84a.35.35,0,0,1,.35-.35.35.35,0,0,1,.34.35V161.7A.35.35,0,0,1,277.73,162.05Z"/><path class="cls-3" d="M281,162.05a.35.35,0,0,1-.34-.35V147.84a.35.35,0,0,1,.34-.35.35.35,0,0,1,.35.35V161.7A.35.35,0,0,1,281,162.05Z"/><path class="cls-3" d="M284.36,162.05a.35.35,0,0,1-.35-.35V147.84a.35.35,0,0,1,.35-.35.35.35,0,0,1,.34.35V161.7A.35.35,0,0,1,284.36,162.05Z"/><path class="cls-3" d="M287.67,162.05a.35.35,0,0,1-.34-.35V147.84a.35.35,0,0,1,.34-.35.35.35,0,0,1,.35.35V161.7A.35.35,0,0,1,287.67,162.05Z"/><path class="cls-3" d="M291,162.05a.35.35,0,0,1-.35-.35V147.84a.35.35,0,0,1,.35-.35.35.35,0,0,1,.34.35V161.7A.35.35,0,0,1,291,162.05Z"/><path class="cls-3" d="M294.3,162.05a.35.35,0,0,1-.35-.35V147.84a.35.35,0,1,1,.7,0V161.7A.35.35,0,0,1,294.3,162.05Z"/><path class="cls-3" d="M297.61,162.05a.35.35,0,0,1-.34-.35V147.84a.35.35,0,0,1,.34-.35.35.35,0,0,1,.35.35V161.7A.35.35,0,0,1,297.61,162.05Z"/><path class="cls-3" d="M300.93,162.05a.35.35,0,0,1-.35-.35V147.84a.35.35,0,0,1,.35-.35.35.35,0,0,1,.34.35V161.7A.35.35,0,0,1,300.93,162.05Z"/><path class="cls-3" d="M304.24,162.05a.35.35,0,0,1-.34-.35V147.84a.35.35,0,0,1,.34-.35.35.35,0,0,1,.35.35V161.7A.35.35,0,0,1,304.24,162.05Z"/><path class="cls-3" d="M307.56,162.05a.35.35,0,0,1-.35-.35V147.84a.35.35,0,0,1,.35-.35.35.35,0,0,1,.34.35V161.7A.35.35,0,0,1,307.56,162.05Z"/><path class="cls-3" d="M310.87,162.05a.35.35,0,0,1-.35-.35V147.84a.35.35,0,0,1,.7,0V161.7A.35.35,0,0,1,310.87,162.05Z"/><path class="cls-3" d="M314.19,162.05a.35.35,0,0,1-.35-.35V147.84a.35.35,0,0,1,.35-.35.35.35,0,0,1,.34.35V161.7A.35.35,0,0,1,314.19,162.05Z"/><path class="cls-3" d="M317.5,162.05a.35.35,0,0,1-.35-.35V147.84a.35.35,0,0,1,.7,0V161.7A.35.35,0,0,1,317.5,162.05Z"/><polygon class="cls-4" points="319.3 163 256.04 163 256.04 146.13 319.3 163"/><path class="cls-3" d="M320,146.82H255.33a.7.7,0,0,1,0-1.39H320a.7.7,0,0,1,0,1.39Z"/><path class="cls-3" d="M320,163.69H255.33a.7.7,0,0,1,0-1.39H320a.7.7,0,0,1,0,1.39Z"/><rect class="cls-2" x="394.48" y="146.13" width="63.27" height="16.87"/><path class="cls-3" d="M396.29,162.05a.35.35,0,0,1-.35-.35V147.84a.35.35,0,0,1,.35-.35.35.35,0,0,1,.34.35V161.7A.35.35,0,0,1,396.29,162.05Z"/><path class="cls-3" d="M399.6,162.05a.35.35,0,0,1-.35-.35V147.84a.35.35,0,0,1,.7,0V161.7A.35.35,0,0,1,399.6,162.05Z"/><path class="cls-3" d="M402.92,162.05a.35.35,0,0,1-.35-.35V147.84a.35.35,0,1,1,.69,0V161.7A.35.35,0,0,1,402.92,162.05Z"/><path class="cls-3" d="M406.23,162.05a.35.35,0,0,1-.35-.35V147.84a.35.35,0,0,1,.7,0V161.7A.35.35,0,0,1,406.23,162.05Z"/><path class="cls-3" d="M409.55,162.05a.35.35,0,0,1-.35-.35V147.84a.35.35,0,0,1,.35-.35.35.35,0,0,1,.34.35V161.7A.35.35,0,0,1,409.55,162.05Z"/><path class="cls-3" d="M412.86,162.05a.35.35,0,0,1-.35-.35V147.84a.35.35,0,0,1,.35-.35.35.35,0,0,1,.34.35V161.7A.35.35,0,0,1,412.86,162.05Z"/><path class="cls-3" d="M416.17,162.05a.35.35,0,0,1-.34-.35V147.84a.35.35,0,0,1,.34-.35.35.35,0,0,1,.35.35V161.7A.35.35,0,0,1,416.17,162.05Z"/><path class="cls-3" d="M419.49,162.05a.35.35,0,0,1-.35-.35V147.84a.35.35,0,0,1,.35-.35.35.35,0,0,1,.34.35V161.7A.35.35,0,0,1,419.49,162.05Z"/><path class="cls-3" d="M422.8,162.05a.35.35,0,0,1-.34-.35V147.84a.35.35,0,0,1,.34-.35.35.35,0,0,1,.35.35V161.7A.35.35,0,0,1,422.8,162.05Z"/><path class="cls-3" d="M426.11,162.05a.35.35,0,0,1-.34-.35V147.84a.35.35,0,0,1,.34-.35.35.35,0,0,1,.35.35V161.7A.35.35,0,0,1,426.11,162.05Z"/><path class="cls-3" d="M429.43,162.05a.35.35,0,0,1-.35-.35V147.84a.35.35,0,0,1,.7,0V161.7A.35.35,0,0,1,429.43,162.05Z"/><path class="cls-3" d="M432.74,162.05a.35.35,0,0,1-.34-.35V147.84a.35.35,0,0,1,.34-.35.35.35,0,0,1,.35.35V161.7A.35.35,0,0,1,432.74,162.05Z"/><path class="cls-3" d="M436.06,162.05a.35.35,0,0,1-.35-.35V147.84a.35.35,0,1,1,.7,0V161.7A.35.35,0,0,1,436.06,162.05Z"/><path class="cls-3" d="M439.37,162.05a.35.35,0,0,1-.34-.35V147.84a.35.35,0,0,1,.34-.35.35.35,0,0,1,.35.35V161.7A.35.35,0,0,1,439.37,162.05Z"/><path class="cls-3" d="M442.69,162.05a.35.35,0,0,1-.35-.35V147.84a.35.35,0,0,1,.35-.35.35.35,0,0,1,.34.35V161.7A.35.35,0,0,1,442.69,162.05Z"/><path class="cls-3" d="M446,162.05a.35.35,0,0,1-.34-.35V147.84a.35.35,0,0,1,.34-.35.35.35,0,0,1,.35.35V161.7A.35.35,0,0,1,446,162.05Z"/><path class="cls-3" d="M449.32,162.05a.35.35,0,0,1-.35-.35V147.84a.35.35,0,1,1,.69,0V161.7A.35.35,0,0,1,449.32,162.05Z"/><path class="cls-3" d="M452.63,162.05a.35.35,0,0,1-.34-.35V147.84a.35.35,0,0,1,.34-.35.35.35,0,0,1,.35.35V161.7A.35.35,0,0,1,452.63,162.05Z"/><path class="cls-3" d="M455.94,162.05a.35.35,0,0,1-.34-.35V147.84a.35.35,0,0,1,.34-.35.35.35,0,0,1,.35.35V161.7A.35.35,0,0,1,455.94,162.05Z"/><polygon class="cls-4" points="457.75 163 394.48 163 394.48 146.13 457.75 163"/><path class="cls-3" d="M458.46,146.82H393.78a.7.7,0,1,1,0-1.39h64.68a.7.7,0,0,1,0,1.39Z"/><path class="cls-3" d="M458.46,163.69H393.78a.7.7,0,1,1,0-1.39h64.68a.7.7,0,0,1,0,1.39Z"/><rect class="cls-5" x="256.04" y="127.87" width="63.27" height="16.87"/><path class="cls-6" d="M257.84,143.79a.35.35,0,0,1-.35-.35V129.58a.35.35,0,0,1,.7,0v13.86A.35.35,0,0,1,257.84,143.79Z"/><path class="cls-6" d="M261.16,143.79a.35.35,0,0,1-.35-.35V129.58a.35.35,0,0,1,.69,0v13.86A.35.35,0,0,1,261.16,143.79Z"/><path class="cls-6" d="M264.47,143.79a.35.35,0,0,1-.35-.35V129.58a.35.35,0,0,1,.7,0v13.86A.35.35,0,0,1,264.47,143.79Z"/><path class="cls-6" d="M267.78,143.79a.35.35,0,0,1-.34-.35V129.58a.35.35,0,0,1,.69,0v13.86A.35.35,0,0,1,267.78,143.79Z"/><path class="cls-6" d="M271.1,143.79a.35.35,0,0,1-.35-.35V129.58a.35.35,0,0,1,.35-.34.34.34,0,0,1,.34.34v13.86A.35.35,0,0,1,271.1,143.79Z"/><path class="cls-6" d="M274.41,143.79a.35.35,0,0,1-.34-.35V129.58a.34.34,0,0,1,.34-.34.35.35,0,0,1,.35.34v13.86A.35.35,0,0,1,274.41,143.79Z"/><path class="cls-6" d="M277.73,143.79a.35.35,0,0,1-.35-.35V129.58a.35.35,0,0,1,.35-.34.34.34,0,0,1,.34.34v13.86A.35.35,0,0,1,277.73,143.79Z"/><path class="cls-6" d="M281,143.79a.35.35,0,0,1-.35-.35V129.58a.35.35,0,0,1,.7,0v13.86A.35.35,0,0,1,281,143.79Z"/><path class="cls-6" d="M284.35,143.79a.35.35,0,0,1-.34-.35V129.58a.35.35,0,0,1,.69,0v13.86A.35.35,0,0,1,284.35,143.79Z"/><path class="cls-6" d="M287.67,143.79a.35.35,0,0,1-.35-.35V129.58a.35.35,0,0,1,.7,0v13.86A.35.35,0,0,1,287.67,143.79Z"/><path class="cls-6" d="M291,143.79a.35.35,0,0,1-.34-.35V129.58a.35.35,0,0,1,.69,0v13.86A.35.35,0,0,1,291,143.79Z"/><path class="cls-6" d="M294.3,143.79a.35.35,0,0,1-.35-.35V129.58a.35.35,0,0,1,.7,0v13.86A.35.35,0,0,1,294.3,143.79Z"/><path class="cls-6" d="M297.61,143.79a.35.35,0,0,1-.34-.35V129.58a.34.34,0,0,1,.34-.34.35.35,0,0,1,.35.34v13.86A.35.35,0,0,1,297.61,143.79Z"/><path class="cls-6" d="M300.93,143.79a.35.35,0,0,1-.35-.35V129.58a.35.35,0,0,1,.35-.34.34.34,0,0,1,.34.34v13.86A.35.35,0,0,1,300.93,143.79Z"/><path class="cls-6" d="M304.24,143.79a.35.35,0,0,1-.34-.35V129.58a.34.34,0,0,1,.34-.34.35.35,0,0,1,.35.34v13.86A.35.35,0,0,1,304.24,143.79Z"/><path class="cls-6" d="M307.56,143.79a.35.35,0,0,1-.35-.35V129.58a.35.35,0,0,1,.35-.34.34.34,0,0,1,.34.34v13.86A.35.35,0,0,1,307.56,143.79Z"/><path class="cls-6" d="M310.87,143.79a.35.35,0,0,1-.35-.35V129.58a.35.35,0,0,1,.7,0v13.86A.35.35,0,0,1,310.87,143.79Z"/><path class="cls-6" d="M314.18,143.79a.35.35,0,0,1-.34-.35V129.58a.35.35,0,0,1,.69,0v13.86A.35.35,0,0,1,314.18,143.79Z"/><path class="cls-6" d="M317.5,143.79a.35.35,0,0,1-.35-.35V129.58a.35.35,0,0,1,.7,0v13.86A.35.35,0,0,1,317.5,143.79Z"/><polygon class="cls-7" points="319.3 144.74 256.04 144.74 256.04 127.87 319.3 144.74"/><path class="cls-6" d="M320,128.56H255.33a.69.69,0,1,1,0-1.38H320a.69.69,0,0,1,0,1.38Z"/><path class="cls-6" d="M320,145.43H255.33a.69.69,0,0,1-.69-.69.7.7,0,0,1,.69-.7H320a.7.7,0,0,1,.69.7A.69.69,0,0,1,320,145.43Z"/><rect class="cls-5" x="325.87" y="146.13" width="63.27" height="16.87"/><path class="cls-6" d="M327.68,162.05a.35.35,0,0,1-.35-.35V147.84a.35.35,0,1,1,.7,0V161.7A.35.35,0,0,1,327.68,162.05Z"/><path class="cls-6" d="M331,162.05a.35.35,0,0,1-.34-.35V147.84a.35.35,0,1,1,.69,0V161.7A.35.35,0,0,1,331,162.05Z"/><path class="cls-6" d="M334.31,162.05a.35.35,0,0,1-.35-.35V147.84a.35.35,0,0,1,.35-.35.35.35,0,0,1,.34.35V161.7A.35.35,0,0,1,334.31,162.05Z"/><path class="cls-6" d="M337.62,162.05a.35.35,0,0,1-.34-.35V147.84a.35.35,0,0,1,.34-.35.35.35,0,0,1,.35.35V161.7A.35.35,0,0,1,337.62,162.05Z"/><path class="cls-6" d="M340.94,162.05a.35.35,0,0,1-.35-.35V147.84a.35.35,0,0,1,.35-.35.35.35,0,0,1,.34.35V161.7A.35.35,0,0,1,340.94,162.05Z"/><path class="cls-6" d="M344.25,162.05a.35.35,0,0,1-.34-.35V147.84a.35.35,0,0,1,.34-.35.35.35,0,0,1,.35.35V161.7A.35.35,0,0,1,344.25,162.05Z"/><path class="cls-6" d="M347.57,162.05a.35.35,0,0,1-.35-.35V147.84a.35.35,0,1,1,.69,0V161.7A.35.35,0,0,1,347.57,162.05Z"/><path class="cls-6" d="M350.88,162.05a.35.35,0,0,1-.35-.35V147.84a.35.35,0,0,1,.7,0V161.7A.35.35,0,0,1,350.88,162.05Z"/><path class="cls-6" d="M354.19,162.05a.35.35,0,0,1-.34-.35V147.84a.35.35,0,1,1,.69,0V161.7A.35.35,0,0,1,354.19,162.05Z"/><path class="cls-6" d="M357.51,162.05a.35.35,0,0,1-.35-.35V147.84a.35.35,0,0,1,.35-.35.35.35,0,0,1,.34.35V161.7A.35.35,0,0,1,357.51,162.05Z"/><path class="cls-6" d="M360.82,162.05a.35.35,0,0,1-.34-.35V147.84a.35.35,0,1,1,.69,0V161.7A.35.35,0,0,1,360.82,162.05Z"/><path class="cls-6" d="M364.14,162.05a.35.35,0,0,1-.35-.35V147.84a.35.35,0,0,1,.35-.35.35.35,0,0,1,.34.35V161.7A.35.35,0,0,1,364.14,162.05Z"/><path class="cls-6" d="M367.45,162.05a.35.35,0,0,1-.34-.35V147.84a.35.35,0,0,1,.34-.35.35.35,0,0,1,.35.35V161.7A.35.35,0,0,1,367.45,162.05Z"/><path class="cls-6" d="M370.77,162.05a.35.35,0,0,1-.35-.35V147.84a.35.35,0,0,1,.35-.35.35.35,0,0,1,.34.35V161.7A.35.35,0,0,1,370.77,162.05Z"/><path class="cls-6" d="M374.08,162.05a.35.35,0,0,1-.35-.35V147.84a.35.35,0,1,1,.7,0V161.7A.35.35,0,0,1,374.08,162.05Z"/><path class="cls-6" d="M377.4,162.05a.35.35,0,0,1-.35-.35V147.84a.35.35,0,1,1,.69,0V161.7A.35.35,0,0,1,377.4,162.05Z"/><path class="cls-6" d="M380.71,162.05a.35.35,0,0,1-.35-.35V147.84a.35.35,0,1,1,.7,0V161.7A.35.35,0,0,1,380.71,162.05Z"/><path class="cls-6" d="M384,162.05a.35.35,0,0,1-.34-.35V147.84a.35.35,0,1,1,.69,0V161.7A.35.35,0,0,1,384,162.05Z"/><path class="cls-6" d="M387.34,162.05a.35.35,0,0,1-.35-.35V147.84a.35.35,0,0,1,.35-.35.35.35,0,0,1,.34.35V161.7A.35.35,0,0,1,387.34,162.05Z"/><polygon class="cls-7" points="389.14 163 325.88 163 325.88 146.13 389.14 163"/><path class="cls-6" d="M389.85,146.82H325.17a.7.7,0,0,1,0-1.39h64.68a.7.7,0,0,1,0,1.39Z"/><path class="cls-6" d="M389.85,163.69H325.17a.7.7,0,0,1,0-1.39h64.68a.7.7,0,0,1,0,1.39Z"/><rect class="cls-5" x="471.15" y="164.37" width="63.27" height="16.87"/><path class="cls-6" d="M473,180.29a.35.35,0,0,1-.35-.35V166.08a.35.35,0,1,1,.7,0v13.86A.35.35,0,0,1,473,180.29Z"/><path class="cls-6" d="M476.27,180.29a.35.35,0,0,1-.34-.35V166.08a.35.35,0,0,1,.34-.35.35.35,0,0,1,.35.35v13.86A.35.35,0,0,1,476.27,180.29Z"/><path class="cls-6" d="M479.59,180.29a.35.35,0,0,1-.35-.35V166.08a.35.35,0,0,1,.35-.35.35.35,0,0,1,.34.35v13.86A.35.35,0,0,1,479.59,180.29Z"/><path class="cls-6" d="M482.9,180.29a.35.35,0,0,1-.34-.35V166.08a.35.35,0,0,1,.34-.35.35.35,0,0,1,.35.35v13.86A.35.35,0,0,1,482.9,180.29Z"/><path class="cls-6" d="M486.21,180.29a.35.35,0,0,1-.34-.35V166.08a.35.35,0,0,1,.34-.35.35.35,0,0,1,.35.35v13.86A.35.35,0,0,1,486.21,180.29Z"/><path class="cls-6" d="M489.53,180.29a.35.35,0,0,1-.35-.35V166.08a.35.35,0,1,1,.7,0v13.86A.35.35,0,0,1,489.53,180.29Z"/><path class="cls-6" d="M492.84,180.29a.35.35,0,0,1-.34-.35V166.08a.35.35,0,0,1,.34-.35.35.35,0,0,1,.35.35v13.86A.35.35,0,0,1,492.84,180.29Z"/><path class="cls-6" d="M496.16,180.29a.35.35,0,0,1-.35-.35V166.08a.35.35,0,0,1,.35-.35.35.35,0,0,1,.34.35v13.86A.35.35,0,0,1,496.16,180.29Z"/><path class="cls-6" d="M499.47,180.29a.35.35,0,0,1-.34-.35V166.08a.35.35,0,0,1,.34-.35.35.35,0,0,1,.35.35v13.86A.35.35,0,0,1,499.47,180.29Z"/><path class="cls-6" d="M502.79,180.29a.35.35,0,0,1-.35-.35V166.08a.35.35,0,0,1,.35-.35.35.35,0,0,1,.34.35v13.86A.35.35,0,0,1,502.79,180.29Z"/><path class="cls-6" d="M506.1,180.29a.35.35,0,0,1-.34-.35V166.08a.35.35,0,0,1,.34-.35.35.35,0,0,1,.35.35v13.86A.35.35,0,0,1,506.1,180.29Z"/><path class="cls-6" d="M509.42,180.29a.35.35,0,0,1-.35-.35V166.08a.35.35,0,0,1,.35-.35.35.35,0,0,1,.34.35v13.86A.35.35,0,0,1,509.42,180.29Z"/><path class="cls-6" d="M512.73,180.29a.35.35,0,0,1-.35-.35V166.08a.35.35,0,1,1,.7,0v13.86A.35.35,0,0,1,512.73,180.29Z"/><path class="cls-6" d="M516,180.29a.35.35,0,0,1-.34-.35V166.08a.35.35,0,1,1,.69,0v13.86A.35.35,0,0,1,516,180.29Z"/><path class="cls-6" d="M519.36,180.29a.35.35,0,0,1-.35-.35V166.08a.35.35,0,0,1,.35-.35.35.35,0,0,1,.34.35v13.86A.35.35,0,0,1,519.36,180.29Z"/><path class="cls-6" d="M522.67,180.29a.35.35,0,0,1-.34-.35V166.08a.35.35,0,0,1,.34-.35.35.35,0,0,1,.35.35v13.86A.35.35,0,0,1,522.67,180.29Z"/><path class="cls-6" d="M526,180.29a.35.35,0,0,1-.35-.35V166.08a.35.35,0,0,1,.35-.35.35.35,0,0,1,.34.35v13.86A.35.35,0,0,1,526,180.29Z"/><path class="cls-6" d="M529.3,180.29a.35.35,0,0,1-.34-.35V166.08a.35.35,0,0,1,.34-.35.35.35,0,0,1,.35.35v13.86A.35.35,0,0,1,529.3,180.29Z"/><path class="cls-6" d="M532.61,180.29a.35.35,0,0,1-.34-.35V166.08a.35.35,0,0,1,.34-.35.35.35,0,0,1,.35.35v13.86A.35.35,0,0,1,532.61,180.29Z"/><polygon class="cls-7" points="534.42 181.24 471.15 181.24 471.15 164.37 534.42 181.24"/><path class="cls-6" d="M535.13,165.06H470.45a.69.69,0,1,1,0-1.38h64.68a.69.69,0,0,1,0,1.38Z"/><path class="cls-6" d="M535.13,181.93H470.45a.7.7,0,1,1,0-1.39h64.68a.7.7,0,0,1,0,1.39Z"/><rect class="cls-8" x="325.87" y="164.37" width="63.27" height="16.87"/><path class="cls-9" d="M327.68,180.29a.35.35,0,0,1-.35-.35V166.08a.35.35,0,0,1,.7,0v13.86A.35.35,0,0,1,327.68,180.29Z"/><path class="cls-9" d="M331,180.29a.35.35,0,0,1-.35-.35V166.08a.35.35,0,1,1,.69,0v13.86A.35.35,0,0,1,331,180.29Z"/><path class="cls-9" d="M334.31,180.29a.35.35,0,0,1-.35-.35V166.08a.35.35,0,1,1,.7,0v13.86A.35.35,0,0,1,334.31,180.29Z"/><path class="cls-9" d="M337.62,180.29a.35.35,0,0,1-.34-.35V166.08a.35.35,0,0,1,.34-.35.35.35,0,0,1,.35.35v13.86A.35.35,0,0,1,337.62,180.29Z"/><path class="cls-9" d="M340.94,180.29a.35.35,0,0,1-.35-.35V166.08a.35.35,0,0,1,.35-.35.35.35,0,0,1,.34.35v13.86A.35.35,0,0,1,340.94,180.29Z"/><path class="cls-9" d="M344.25,180.29a.35.35,0,0,1-.34-.35V166.08a.35.35,0,0,1,.34-.35.35.35,0,0,1,.35.35v13.86A.35.35,0,0,1,344.25,180.29Z"/><path class="cls-9" d="M347.57,180.29a.35.35,0,0,1-.35-.35V166.08a.35.35,0,0,1,.35-.35.35.35,0,0,1,.34.35v13.86A.35.35,0,0,1,347.57,180.29Z"/><path class="cls-9" d="M350.88,180.29a.35.35,0,0,1-.34-.35V166.08a.35.35,0,0,1,.34-.35.35.35,0,0,1,.35.35v13.86A.35.35,0,0,1,350.88,180.29Z"/><path class="cls-9" d="M354.19,180.29a.35.35,0,0,1-.34-.35V166.08a.35.35,0,1,1,.69,0v13.86A.35.35,0,0,1,354.19,180.29Z"/><path class="cls-9" d="M357.51,180.29a.35.35,0,0,1-.35-.35V166.08a.35.35,0,1,1,.7,0v13.86A.35.35,0,0,1,357.51,180.29Z"/><path class="cls-9" d="M360.82,180.29a.35.35,0,0,1-.34-.35V166.08a.35.35,0,1,1,.69,0v13.86A.35.35,0,0,1,360.82,180.29Z"/><path class="cls-9" d="M364.14,180.29a.35.35,0,0,1-.35-.35V166.08a.35.35,0,1,1,.7,0v13.86A.35.35,0,0,1,364.14,180.29Z"/><path class="cls-9" d="M367.45,180.29a.35.35,0,0,1-.34-.35V166.08a.35.35,0,0,1,.34-.35.35.35,0,0,1,.35.35v13.86A.35.35,0,0,1,367.45,180.29Z"/><path class="cls-9" d="M370.77,180.29a.35.35,0,0,1-.35-.35V166.08a.35.35,0,0,1,.35-.35.35.35,0,0,1,.34.35v13.86A.35.35,0,0,1,370.77,180.29Z"/><path class="cls-9" d="M374.08,180.29a.35.35,0,0,1-.34-.35V166.08a.35.35,0,0,1,.34-.35.35.35,0,0,1,.35.35v13.86A.35.35,0,0,1,374.08,180.29Z"/><path class="cls-9" d="M377.4,180.29a.35.35,0,0,1-.35-.35V166.08a.35.35,0,1,1,.69,0v13.86A.35.35,0,0,1,377.4,180.29Z"/><path class="cls-9" d="M380.71,180.29a.35.35,0,0,1-.34-.35V166.08a.35.35,0,0,1,.34-.35.35.35,0,0,1,.35.35v13.86A.35.35,0,0,1,380.71,180.29Z"/><path class="cls-9" d="M384,180.29a.35.35,0,0,1-.34-.35V166.08a.35.35,0,1,1,.69,0v13.86A.35.35,0,0,1,384,180.29Z"/><path class="cls-9" d="M387.34,180.29a.35.35,0,0,1-.35-.35V166.08a.35.35,0,1,1,.7,0v13.86A.35.35,0,0,1,387.34,180.29Z"/><polygon class="cls-10" points="389.14 181.24 325.88 181.24 325.88 164.37 389.14 181.24"/><path class="cls-9" d="M389.85,165.06H325.17a.69.69,0,0,1,0-1.38h64.68a.69.69,0,0,1,0,1.38Z"/><path class="cls-9" d="M389.85,181.93H325.17a.7.7,0,0,1,0-1.39h64.68a.7.7,0,0,1,0,1.39Z"/><rect class="cls-8" x="471.15" y="146.13" width="63.27" height="16.87"/><path class="cls-9" d="M473,162.05a.35.35,0,0,1-.35-.35V147.84a.35.35,0,0,1,.7,0V161.7A.35.35,0,0,1,473,162.05Z"/><path class="cls-9" d="M476.27,162.05a.35.35,0,0,1-.35-.35V147.84a.35.35,0,0,1,.7,0V161.7A.35.35,0,0,1,476.27,162.05Z"/><path class="cls-9" d="M479.59,162.05a.35.35,0,0,1-.35-.35V147.84a.35.35,0,0,1,.69,0V161.7A.35.35,0,0,1,479.59,162.05Z"/><path class="cls-9" d="M482.9,162.05a.35.35,0,0,1-.35-.35V147.84a.35.35,0,0,1,.7,0V161.7A.35.35,0,0,1,482.9,162.05Z"/><path class="cls-9" d="M486.21,162.05a.35.35,0,0,1-.34-.35V147.84a.34.34,0,0,1,.34-.34.35.35,0,0,1,.35.34V161.7A.35.35,0,0,1,486.21,162.05Z"/><path class="cls-9" d="M489.53,162.05a.35.35,0,0,1-.35-.35V147.84a.35.35,0,0,1,.35-.34.34.34,0,0,1,.34.34V161.7A.35.35,0,0,1,489.53,162.05Z"/><path class="cls-9" d="M492.84,162.05a.35.35,0,0,1-.35-.35V147.84a.35.35,0,0,1,.7,0V161.7A.35.35,0,0,1,492.84,162.05Z"/><path class="cls-9" d="M496.16,162.05a.35.35,0,0,1-.35-.35V147.84a.35.35,0,0,1,.35-.34.34.34,0,0,1,.34.34V161.7A.35.35,0,0,1,496.16,162.05Z"/><path class="cls-9" d="M499.47,162.05a.35.35,0,0,1-.34-.35V147.84a.34.34,0,0,1,.34-.34.35.35,0,0,1,.35.34V161.7A.35.35,0,0,1,499.47,162.05Z"/><path class="cls-9" d="M502.79,162.05a.35.35,0,0,1-.35-.35V147.84a.35.35,0,0,1,.69,0V161.7A.35.35,0,0,1,502.79,162.05Z"/><path class="cls-9" d="M506.1,162.05a.35.35,0,0,1-.35-.35V147.84a.35.35,0,0,1,.7,0V161.7A.35.35,0,0,1,506.1,162.05Z"/><path class="cls-9" d="M509.42,162.05a.35.35,0,0,1-.35-.35V147.84a.35.35,0,0,1,.69,0V161.7A.35.35,0,0,1,509.42,162.05Z"/><path class="cls-9" d="M512.73,162.05a.35.35,0,0,1-.35-.35V147.84a.35.35,0,0,1,.7,0V161.7A.35.35,0,0,1,512.73,162.05Z"/><path class="cls-9" d="M516.05,162.05a.35.35,0,0,1-.35-.35V147.84a.34.34,0,0,1,.35-.34.34.34,0,0,1,.34.34V161.7A.35.35,0,0,1,516.05,162.05Z"/><path class="cls-9" d="M519.36,162.05a.35.35,0,0,1-.35-.35V147.84a.35.35,0,0,1,.35-.34.34.34,0,0,1,.34.34V161.7A.35.35,0,0,1,519.36,162.05Z"/><path class="cls-9" d="M522.67,162.05a.35.35,0,0,1-.34-.35V147.84a.34.34,0,0,1,.34-.34.35.35,0,0,1,.35.34V161.7A.35.35,0,0,1,522.67,162.05Z"/><path class="cls-9" d="M526,162.05a.35.35,0,0,1-.35-.35V147.84a.35.35,0,0,1,.35-.34.34.34,0,0,1,.34.34V161.7A.35.35,0,0,1,526,162.05Z"/><path class="cls-9" d="M529.3,162.05a.35.35,0,0,1-.34-.35V147.84a.34.34,0,1,1,.68,0V161.7A.35.35,0,0,1,529.3,162.05Z"/><path class="cls-9" d="M532.61,162.05a.35.35,0,0,1-.34-.35V147.84a.34.34,0,0,1,.34-.34.35.35,0,0,1,.35.34V161.7A.35.35,0,0,1,532.61,162.05Z"/><polygon class="cls-10" points="534.42 163 471.15 163 471.15 146.13 534.42 163"/><path class="cls-9" d="M535.13,146.82H470.45a.7.7,0,1,1,0-1.39h64.68a.7.7,0,0,1,0,1.39Z"/><path class="cls-9" d="M535.13,163.69H470.45a.7.7,0,1,1,0-1.39h64.68a.7.7,0,0,1,0,1.39Z"/><rect class="cls-11" x="394.48" y="164.37" width="63.27" height="16.87"/><path class="cls-12" d="M396.29,180.29a.35.35,0,0,1-.35-.35V166.08a.35.35,0,0,1,.35-.35.35.35,0,0,1,.34.35v13.86A.35.35,0,0,1,396.29,180.29Z"/><path class="cls-12" d="M399.6,180.29a.35.35,0,0,1-.35-.35V166.08a.35.35,0,1,1,.7,0v13.86A.35.35,0,0,1,399.6,180.29Z"/><path class="cls-12" d="M402.92,180.29a.35.35,0,0,1-.35-.35V166.08a.35.35,0,1,1,.69,0v13.86A.35.35,0,0,1,402.92,180.29Z"/><path class="cls-12" d="M406.23,180.29a.35.35,0,0,1-.35-.35V166.08a.35.35,0,1,1,.7,0v13.86A.35.35,0,0,1,406.23,180.29Z"/><path class="cls-12" d="M409.55,180.29a.35.35,0,0,1-.35-.35V166.08a.35.35,0,0,1,.35-.35.35.35,0,0,1,.34.35v13.86A.35.35,0,0,1,409.55,180.29Z"/><path class="cls-12" d="M412.86,180.29a.35.35,0,0,1-.35-.35V166.08a.35.35,0,0,1,.35-.35.35.35,0,0,1,.34.35v13.86A.35.35,0,0,1,412.86,180.29Z"/><path class="cls-12" d="M416.17,180.29a.35.35,0,0,1-.34-.35V166.08a.35.35,0,0,1,.34-.35.35.35,0,0,1,.35.35v13.86A.35.35,0,0,1,416.17,180.29Z"/><path class="cls-12" d="M419.49,180.29a.35.35,0,0,1-.35-.35V166.08a.35.35,0,0,1,.35-.35.35.35,0,0,1,.34.35v13.86A.35.35,0,0,1,419.49,180.29Z"/><path class="cls-12" d="M422.8,180.29a.35.35,0,0,1-.34-.35V166.08a.35.35,0,0,1,.34-.35.35.35,0,0,1,.35.35v13.86A.35.35,0,0,1,422.8,180.29Z"/><path class="cls-12" d="M426.11,180.29a.35.35,0,0,1-.34-.35V166.08a.35.35,0,0,1,.34-.35.35.35,0,0,1,.35.35v13.86A.35.35,0,0,1,426.11,180.29Z"/><path class="cls-12" d="M429.43,180.29a.35.35,0,0,1-.35-.35V166.08a.35.35,0,1,1,.7,0v13.86A.35.35,0,0,1,429.43,180.29Z"/><path class="cls-12" d="M432.74,180.29a.35.35,0,0,1-.34-.35V166.08a.35.35,0,0,1,.34-.35.35.35,0,0,1,.35.35v13.86A.35.35,0,0,1,432.74,180.29Z"/><path class="cls-12" d="M436.06,180.29a.35.35,0,0,1-.35-.35V166.08a.35.35,0,1,1,.7,0v13.86A.35.35,0,0,1,436.06,180.29Z"/><path class="cls-12" d="M439.37,180.29a.35.35,0,0,1-.35-.35V166.08a.35.35,0,0,1,.7,0v13.86A.35.35,0,0,1,439.37,180.29Z"/><path class="cls-12" d="M442.69,180.29a.35.35,0,0,1-.35-.35V166.08a.35.35,0,0,1,.35-.35.35.35,0,0,1,.34.35v13.86A.35.35,0,0,1,442.69,180.29Z"/><path class="cls-12" d="M446,180.29a.35.35,0,0,1-.34-.35V166.08a.35.35,0,0,1,.34-.35.35.35,0,0,1,.35.35v13.86A.35.35,0,0,1,446,180.29Z"/><path class="cls-12" d="M449.32,180.29a.35.35,0,0,1-.35-.35V166.08a.35.35,0,1,1,.69,0v13.86A.35.35,0,0,1,449.32,180.29Z"/><path class="cls-12" d="M452.63,180.29a.35.35,0,0,1-.34-.35V166.08a.35.35,0,0,1,.34-.35.35.35,0,0,1,.35.35v13.86A.35.35,0,0,1,452.63,180.29Z"/><path class="cls-12" d="M455.94,180.29a.35.35,0,0,1-.34-.35V166.08a.35.35,0,0,1,.34-.35.35.35,0,0,1,.35.35v13.86A.35.35,0,0,1,455.94,180.29Z"/><polygon class="cls-13" points="457.75 181.24 394.48 181.24 394.48 164.37 457.75 181.24"/><path class="cls-12" d="M458.46,165.06H393.77a.69.69,0,0,1,0-1.38h64.69a.69.69,0,0,1,0,1.38Z"/><path class="cls-12" d="M458.46,181.93H393.77a.7.7,0,0,1,0-1.39h64.69a.7.7,0,0,1,0,1.39Z"/><rect class="cls-11" x="256.04" y="164.37" width="63.27" height="16.87"/><path class="cls-12" d="M257.84,180.29a.35.35,0,0,1-.34-.35V166.08a.35.35,0,0,1,.34-.35.35.35,0,0,1,.35.35v13.86A.35.35,0,0,1,257.84,180.29Z"/><path class="cls-12" d="M261.16,180.29a.35.35,0,0,1-.35-.35V166.08a.35.35,0,0,1,.35-.35.35.35,0,0,1,.34.35v13.86A.35.35,0,0,1,261.16,180.29Z"/><path class="cls-12" d="M264.47,180.29a.35.35,0,0,1-.35-.35V166.08a.35.35,0,0,1,.7,0v13.86A.35.35,0,0,1,264.47,180.29Z"/><path class="cls-12" d="M267.78,180.29a.35.35,0,0,1-.34-.35V166.08a.35.35,0,1,1,.69,0v13.86A.35.35,0,0,1,267.78,180.29Z"/><path class="cls-12" d="M271.1,180.29a.35.35,0,0,1-.35-.35V166.08a.35.35,0,0,1,.7,0v13.86A.35.35,0,0,1,271.1,180.29Z"/><path class="cls-12" d="M274.41,180.29a.35.35,0,0,1-.34-.35V166.08a.35.35,0,0,1,.34-.35.35.35,0,0,1,.35.35v13.86A.35.35,0,0,1,274.41,180.29Z"/><path class="cls-12" d="M277.73,180.29a.35.35,0,0,1-.35-.35V166.08a.35.35,0,0,1,.35-.35.35.35,0,0,1,.34.35v13.86A.35.35,0,0,1,277.73,180.29Z"/><path class="cls-12" d="M281,180.29a.35.35,0,0,1-.34-.35V166.08a.35.35,0,0,1,.34-.35.35.35,0,0,1,.35.35v13.86A.35.35,0,0,1,281,180.29Z"/><path class="cls-12" d="M284.36,180.29a.35.35,0,0,1-.35-.35V166.08a.35.35,0,1,1,.69,0v13.86A.35.35,0,0,1,284.36,180.29Z"/><path class="cls-12" d="M287.67,180.29a.35.35,0,0,1-.35-.35V166.08a.35.35,0,0,1,.7,0v13.86A.35.35,0,0,1,287.67,180.29Z"/><path class="cls-12" d="M291,180.29a.35.35,0,0,1-.35-.35V166.08a.35.35,0,1,1,.69,0v13.86A.35.35,0,0,1,291,180.29Z"/><path class="cls-12" d="M294.3,180.29a.35.35,0,0,1-.35-.35V166.08a.35.35,0,0,1,.7,0v13.86A.35.35,0,0,1,294.3,180.29Z"/><path class="cls-12" d="M297.61,180.29a.35.35,0,0,1-.34-.35V166.08a.35.35,0,0,1,.34-.35.35.35,0,0,1,.35.35v13.86A.35.35,0,0,1,297.61,180.29Z"/><path class="cls-12" d="M300.93,180.29a.35.35,0,0,1-.35-.35V166.08a.35.35,0,0,1,.35-.35.35.35,0,0,1,.34.35v13.86A.35.35,0,0,1,300.93,180.29Z"/><path class="cls-12" d="M304.24,180.29a.35.35,0,0,1-.34-.35V166.08a.35.35,0,0,1,.34-.35.35.35,0,0,1,.35.35v13.86A.35.35,0,0,1,304.24,180.29Z"/><path class="cls-12" d="M307.56,180.29a.35.35,0,0,1-.35-.35V166.08a.35.35,0,0,1,.35-.35.35.35,0,0,1,.34.35v13.86A.35.35,0,0,1,307.56,180.29Z"/><path class="cls-12" d="M310.87,180.29a.35.35,0,0,1-.35-.35V166.08a.35.35,0,0,1,.7,0v13.86A.35.35,0,0,1,310.87,180.29Z"/><path class="cls-12" d="M314.19,180.29a.35.35,0,0,1-.35-.35V166.08a.35.35,0,1,1,.69,0v13.86A.35.35,0,0,1,314.19,180.29Z"/><path class="cls-12" d="M317.5,180.29a.35.35,0,0,1-.35-.35V166.08a.35.35,0,0,1,.7,0v13.86A.35.35,0,0,1,317.5,180.29Z"/><polygon class="cls-13" points="319.3 181.24 256.04 181.24 256.04 164.37 319.3 181.24"/><path class="cls-12" d="M320,165.06H255.33a.69.69,0,1,1,0-1.38H320a.69.69,0,0,1,0,1.38Z"/><path class="cls-12" d="M320,181.93H255.33a.7.7,0,0,1,0-1.39H320a.7.7,0,0,1,0,1.39Z"/><path class="cls-14" d="M78.56,1.93a.09.09,0,0,0,0-.06s0,0,0,0,0,0,0,0h-.05s0,0,0,0,0,0-.06,0,0,0,0,.06l0,0L68.94,77.34a.18.18,0,0,0,.16.2h0a.18.18,0,0,0,.18-.16L78.41,3.46l9.82,76.73a.18.18,0,0,0,.18.16h0a.18.18,0,0,0,.16-.2L78.58,2A.05.05,0,0,0,78.56,1.93Z"/><path class="cls-14" d="M90.62,7.83a.18.18,0,0,0-.16.21l8.81,70.79a.18.18,0,0,0,.18.16h0a.18.18,0,0,0,.16-.21L90.82,8A.18.18,0,0,0,90.62,7.83Z"/><path class="cls-14" d="M90.62,30.57a.18.18,0,0,0-.16.2L94,78.82a.19.19,0,0,0,.19.17h0a.19.19,0,0,0,.17-.2L90.82,30.74A.19.19,0,0,0,90.62,30.57Z"/><path class="cls-14" d="M107.8,44.39a.19.19,0,0,0-.21.15L100.76,78.1a.18.18,0,0,0,.14.21h0a.2.2,0,0,0,.18-.15L108,44.61A.19.19,0,0,0,107.8,44.39Z"/><path class="cls-15" d="M78.4,78.81a.73.73,0,0,1-.72-.73V.73a.73.73,0,1,1,1.45,0V78.08A.73.73,0,0,1,78.4,78.81Z"/><path class="cls-15" d="M90.64,80.17a.73.73,0,0,1-.73-.73V6.85a.73.73,0,1,1,1.46,0V79.44A.73.73,0,0,1,90.64,80.17Z"/><path class="cls-15" d="M107.77,78.13a.73.73,0,0,1-.73-.73V44.57a.73.73,0,0,1,1.46,0V77.4A.73.73,0,0,1,107.77,78.13Z"/><rect class="cls-16" x="73.51" y="43.84" width="39.97" height="1.46"/><rect class="cls-16" x="76.57" y="35.28" width="22.43" height="1.46"/><rect class="cls-16" x="73.51" y="67.12" width="38.64" height="2.92"/><rect class="cls-16" x="73.51" y="57.39" width="38.64" height="2.92"/><polygon class="cls-17" points="113.48 43.84 73.51 43.84 73.51 44.57 112.41 44.57 112.41 45.3 113.48 45.3 113.48 43.84"/><polygon class="cls-17" points="97.93 36.74 99 36.74 99 35.28 76.57 35.28 76.57 36.01 97.93 36.01 97.93 36.74"/><polygon class="cls-17" points="73.51 67.85 111.08 67.85 111.08 70.04 112.15 70.04 112.15 67.12 73.51 67.12 73.51 67.85"/><polygon class="cls-17" points="73.51 58.12 111.08 58.12 111.08 60.31 112.15 60.31 112.15 57.39 73.51 57.39 73.51 58.12"/><rect class="cls-18" x="168.65" y="101.82" width="23.54" height="33.29"/><rect class="cls-19" x="168.65" y="101.82" width="8.14" height="33.29"/><rect class="cls-17" x="166.9" y="99.63" width="27.94" height="4.38"/><rect class="cls-16" x="166.9" y="99.63" width="9.89" height="4.38"/><rect class="cls-20" x="63.93" y="76.5" width="74.02" height="23.13"/><rect class="cls-21" x="86.36" y="76.5" width="51.59" height="23.13"/><rect class="cls-20" x="49.45" y="130.63" width="123.98" height="56.28"/><rect class="cls-21" x="84.73" y="130.63" width="88.7" height="56.28"/><rect class="cls-16" x="88.36" y="137.61" width="49.82" height="1.67" rx="0.46"/><rect class="cls-16" x="88.36" y="148.09" width="49.82" height="1.67" rx="0.46"/><rect class="cls-16" x="88.36" y="158.58" width="49.82" height="1.67" rx="0.46"/><rect class="cls-16" x="88.36" y="169.06" width="49.82" height="1.67" rx="0.46"/><path class="cls-16" d="M138.18,180.75a.46.46,0,0,1-.46.45H88.82a.46.46,0,0,1-.46-.45V180a.47.47,0,0,1,.46-.46h48.9a.47.47,0,0,1,.46.46Z"/><rect class="cls-22" x="53.5" y="137.61" width="26.96" height="1.67" rx="0.46"/><rect class="cls-22" x="53.5" y="148.09" width="26.96" height="1.67" rx="0.46"/><rect class="cls-22" x="53.5" y="158.58" width="26.96" height="1.67" rx="0.46"/><rect class="cls-22" x="53.5" y="169.06" width="26.96" height="1.67" rx="0.46"/><rect class="cls-22" x="53.5" y="179.54" width="26.96" height="1.66" rx="0.46"/><polygon class="cls-23" points="173.43 130.63 49.88 130.63 141.69 186.91 173.43 186.91 173.43 130.63"/><rect class="cls-23" x="49.45" y="130.63" width="109.56" height="3.72"/><polygon class="cls-23" points="168.07 130.63 133.4 130.63 133.4 186.91 142 186.91 166.06 186.91 173.43 186.91 173.43 143.08 168.07 130.63"/><rect class="cls-24" x="46.85" y="104.01" width="112.15" height="26.62"/><rect class="cls-25" x="88.04" y="104.01" width="70.96" height="26.62"/><rect class="cls-23" x="46.85" y="102.77" width="112.15" height="3.42"/><rect class="cls-16" x="90.23" y="108.94" width="8.73" height="9.53" rx="1.46"/><rect class="cls-16" x="101.54" y="108.94" width="8.73" height="9.53" rx="1.46"/><rect class="cls-16" x="112.84" y="108.94" width="8.73" height="9.53" rx="1.46"/><rect class="cls-16" x="124.14" y="108.94" width="8.73" height="9.53" rx="1.46"/><rect class="cls-16" x="135.44" y="108.94" width="8.73" height="9.53" rx="1.46"/><rect class="cls-16" x="146.74" y="108.94" width="8.73" height="9.53" rx="1.46"/><rect class="cls-22" x="51.14" y="108.94" width="8.73" height="9.53" rx="1.46"/><rect class="cls-22" x="62.44" y="108.94" width="8.73" height="9.53" rx="1.46"/><rect class="cls-22" x="73.75" y="108.94" width="8.73" height="9.53" rx="1.46"/><rect class="cls-26" x="44" y="99.63" width="117.86" height="4.38"/><rect class="cls-27" x="79.07" y="99.63" width="82.79" height="4.38"/><rect class="cls-22" x="93.39" y="83.64" width="44.56" height="8.58"/><polygon class="cls-28" points="106.01 83.64 97.83 92.22 101.86 92.22 110.05 83.64 106.01 83.64"/><polygon class="cls-28" points="107.37 92.22 113.42 92.22 121.61 83.64 115.56 83.64 107.37 92.22"/><polygon class="cls-28" points="133.54 83.64 125.35 92.22 127.37 92.22 135.56 83.64 133.54 83.64"/><polygon class="cls-21" points="227.67 150.61 217.07 125.93 140.19 125.93 140.19 186.91 193.01 186.91 217.07 186.91 241.33 186.91 241.33 150.61 227.67 150.61"/><polygon class="cls-20" points="183.46 150.61 172.85 125.93 140.19 125.93 140.19 186.91 148.79 186.91 172.85 186.91 193.01 186.91 197.12 186.91 197.12 150.61 183.46 150.61"/><rect class="cls-29" x="197.12" y="150.61" width="44.22" height="36.3"/><rect class="cls-22" x="142.53" y="135.11" width="5.31" height="6.67" rx="1.46"/><rect class="cls-22" x="161.8" y="135.11" width="5.31" height="6.67" rx="1.46"/><rect class="cls-22" x="142.53" y="154.24" width="5.31" height="6.67" rx="1.46"/><rect class="cls-22" x="161.8" y="154.24" width="5.31" height="6.67" rx="1.46"/><rect class="cls-22" x="185.45" y="154.24" width="5.31" height="6.67" rx="1.46"/><rect class="cls-22" x="142.53" y="175.21" width="5.31" height="6.67" rx="1.46"/><rect class="cls-22" x="161.8" y="175.21" width="5.31" height="6.67" rx="1.46"/><rect class="cls-22" x="185.45" y="175.21" width="5.31" height="6.67" rx="1.46"/><rect class="cls-16" x="202.11" y="156.08" width="5.31" height="6.67" rx="1.46"/><rect class="cls-16" x="217.71" y="156.08" width="5.31" height="6.67" rx="1.46"/><rect class="cls-16" x="233.32" y="156.08" width="5.31" height="6.67" rx="1.46"/><rect class="cls-16" x="202.11" y="175.21" width="5.31" height="6.67" rx="1.46"/><rect class="cls-16" x="217.71" y="175.21" width="5.31" height="6.67" rx="1.46"/><rect class="cls-16" x="233.32" y="175.21" width="5.31" height="6.67" rx="1.46"/><polygon class="cls-22" points="185.45 144.76 225.16 144.76 219.43 131.43 179.56 131.43 185.45 144.76"/><polygon class="cls-28" points="195.94 131.43 184.74 143.16 185.45 144.76 187.24 144.76 199.97 131.43 195.94 131.43"/><polygon class="cls-28" points="205.48 131.43 192.75 144.76 198.8 144.76 211.53 131.43 205.48 131.43"/><polygon class="cls-28" points="220.68 134.34 210.73 144.76 212.75 144.76 221.31 135.8 220.68 134.34"/><path class="cls-14" d="M580.22,182.56a.31.31,0,0,1-.29-.23L556.74,98.49a.29.29,0,0,1,.21-.37.29.29,0,0,1,.37.21l23.2,83.84a.32.32,0,0,1-.22.38Z"/><path class="cls-14" d="M573.17,185a.3.3,0,0,1-.3-.23L554.12,99.08a.3.3,0,0,1,.23-.36.31.31,0,0,1,.36.23l18.76,85.66a.31.31,0,0,1-.24.36Z"/><path class="cls-14" d="M538.56,197.11h0a.3.3,0,0,1-.26-.33l11.68-98.4a.3.3,0,0,1,.34-.26.3.3,0,0,1,.26.33l-11.68,98.4A.31.31,0,0,1,538.56,197.11Z"/><path class="cls-14" d="M528,196.5h-.06a.31.31,0,0,1-.24-.36L551.25,83.53a.3.3,0,0,1,.36-.23.3.3,0,0,1,.23.36l-23.58,112.6A.32.32,0,0,1,528,196.5Z"/><polygon class="cls-30" points="551.7 193.48 551.7 74.8 564.98 193.48 551.7 193.48"/><polygon class="cls-15" points="551.7 74.8 551.7 193.48 556.28 193.48 552.75 84.13 551.7 74.8"/><rect class="cls-16" x="546.41" y="97.14" width="13.28" height="2.53"/><rect class="cls-16" x="546.41" y="82.66" width="10.59" height="1.58"/><path class="cls-14" d="M174.86,173.62H.3a.31.31,0,0,0-.3.31.3.3,0,0,0,.3.3H2.47v7a.31.31,0,0,0,.61,0v-7H9v7a.31.31,0,0,0,.61,0v-7h5.92v7a.3.3,0,1,0,.6,0v-7H22v7a.31.31,0,0,0,.61,0v-7h5.92v7a.3.3,0,0,0,.6,0v-7h5.92v7a.3.3,0,0,0,.6,0v-7h5.92v7a.31.31,0,0,0,.61,0v-7h5.92v7a.3.3,0,1,0,.6,0v-7h5.92v7a.31.31,0,0,0,.61,0v-7h5.91v7a.31.31,0,0,0,.61,0v-7h5.92v7a.3.3,0,1,0,.6,0v-7h5.92v7a.31.31,0,0,0,.61,0v-7h5.92v7a.3.3,0,1,0,.6,0v-7h5.92v7a.3.3,0,0,0,.3.3.29.29,0,0,0,.3-.3v-7H93.8v7a.31.31,0,0,0,.61,0v-7h5.92v7a.3.3,0,1,0,.6,0v-7h5.92v7a.31.31,0,0,0,.61,0v-7h5.91v7a.31.31,0,0,0,.61,0v-7h5.92v7a.3.3,0,1,0,.6,0v-7h5.92v7a.31.31,0,0,0,.61,0v-7H133v7a.3.3,0,0,0,.6,0v-7h5.92v7a.3.3,0,1,0,.6,0v-7H146v7a.31.31,0,0,0,.61,0v-7h5.92v7a.3.3,0,1,0,.6,0v-7H159v7a.31.31,0,0,0,.61,0v-7h5.91v7a.31.31,0,0,0,.61,0v-7h5.92v7a.3.3,0,1,0,.6,0v-7h2.17a.29.29,0,0,0,.3-.3A.3.3,0,0,0,174.86,173.62Z"/><path class="cls-14" d="M652.82,154.49H563.65a.3.3,0,0,0,0,.6h1.59v7a.3.3,0,1,0,.6,0v-7h5.92v7a.31.31,0,1,0,.61,0v-7h5.92v7a.3.3,0,1,0,.6,0v-7h5.92v7a.31.31,0,0,0,.3.31.3.3,0,0,0,.3-.31v-7h5.92v7a.31.31,0,1,0,.61,0v-7h5.92v7a.3.3,0,1,0,.6,0v-7h5.92v7a.31.31,0,1,0,.61,0v-7h5.91v7a.31.31,0,1,0,.61,0v-7h5.92v7a.3.3,0,1,0,.6,0v-7H624v7a.31.31,0,1,0,.61,0v-7h5.92v7a.3.3,0,0,0,.3.31.31.31,0,0,0,.3-.31v-7H637v7a.31.31,0,0,0,.3.31.3.3,0,0,0,.3-.31v-7h5.92v7a.31.31,0,1,0,.61,0v-7h5.92v7a.3.3,0,1,0,.6,0v-7h2.17a.3.3,0,0,0,0-.6Z"/><path class="cls-31" d="M.24,180.19s18.35,45.66,38.94,45.66H638.94v-6.72s-9.84-10.74-9.84-19.24,23.72-30,23.72-30v-8.5H563.75s3.58,18.79-52.37,18.79Z"/><path class="cls-32" d="M95.78,180.19H.24s18.35,45.66,38.94,45.66H191.9c-9.33-2.78-18.62-5.89-27.85-9.4C139.83,207.22,115.8,196.13,95.78,180.19Z"/><path class="cls-32" d="M608.74,161.4c-28.47,27.85-62.51,48.62-99.32,64.45H638.94v-6.72s-9.84-10.74-9.84-19.24,23.72-30,23.72-30v-8.5Z"/><path class="cls-14" d="M628.9,161.4c-11.47,17.47-21.55,44.27,8.48,58.24l1.56,6.21v-6.72s-9.84-10.74-9.84-19.24,23.72-30,23.72-30v-8.5Z"/><path class="cls-17" d="M39.18,225.85H638.94v-6.72s-9.43-10.3-9.81-18.72H10.4C17.67,212.63,28.1,225.85,39.18,225.85Z"/><path class="cls-17" d="M563.75,161.4s.78,4.12-4.12,8.5h93.19v-8.5Z"/><path class="cls-16" d="M652.82,161.4H608.74q-4.47,4.36-9.13,8.5h53.21Z"/><path class="cls-22" d="M652.82,161.4H628.9a91.29,91.29,0,0,0-5,8.5h28.9Z"/><path class="cls-16" d="M638.94,225.85v-6.72s-9.43-10.3-9.81-18.72H558.58a370.8,370.8,0,0,1-49.16,25.44Z"/><path class="cls-16" d="M127.52,200.41H10.4c7.27,12.22,17.7,25.44,28.78,25.44H191.9c-9.33-2.78-18.62-5.89-27.85-9.4A355,355,0,0,1,127.52,200.41Z"/><path class="cls-14" d="M567.33,184.67a5.82,5.82,0,1,1-5.82-5.82A5.83,5.83,0,0,1,567.33,184.67Z"/><path class="cls-22" d="M637.38,219.64l1.56,6.21v-6.72s-9.43-10.3-9.81-18.72H618.69C620.87,207.8,626.48,214.57,637.38,219.64Z"/><path class="cls-33" d="M557,171.86c-6.66,4.32-19.79,8.33-45.65,8.33H85.58l327.55,4.48C524.29,184.67,550,184.43,557,171.86Z"/></g></g></svg>