<svg id="Camada_1" data-name="Camada 1" xmlns="http://www.w3.org/2000/svg" viewBox="0 0 291.31 500.12"><defs><style>.cls-1{fill:#bfc1ae;}.cls-2{fill:#ff7e78;}.cls-3{fill:#f45656;}.cls-4{fill:#a55a46;}.cls-5{fill:#caccb4;}.cls-6{fill:#e8e4d6;}.cls-7{fill:#5881a0;}.cls-8{fill:#3d667f;}.cls-9{fill:#bdc1a3;}.cls-10{fill:#909377;}.cls-11{fill:#ef3f3f;}.cls-12{fill:#d8a971;}.cls-13{fill:#e5c4a5;}.cls-14{fill:#ff6c6c;}.cls-15{fill:#ff7373;}.cls-16{fill:#655e57;}.cls-17{fill:#939ea0;}.cls-18{fill:#495d60;}</style></defs><path class="cls-1" d="M38.24,470.61v-6.8s.44-2,2-2H56L54.43,472.6Z"/><path class="cls-2" d="M77,99.16S33.13,288.72,32,359.94c-.53,34.54,3.29,70.41,7.12,75.95,0,0,22.84-1.43,30.68-.9,10.78.73,32.51-.37,32.51-.37S81.36,153.94,77,99.16Z"/><path class="cls-3" d="M32,359.94c-.53,34.54,3.29,70.41,7.12,75.95,0,0,9.66-.6,18.57-.88-.89-11.95-1.55-20.67-2.77-37.8-4.69-66.3,22-298,22-298S33.13,288.72,32,359.94Z"/><path class="cls-4" d="M77,99.16S93.94,298,97.22,349.53,104,453.79,104,453.79l-5.69-4.56S76.46,122.7,77,99.16Z"/><path class="cls-5" d="M49,472.24l6.58-20.63,47.9-.39S127,446,141.6,444.85s15.61,4.38,15.61,4.38l2.89,6-1.52,1.47,2.19,9.5-63,10.05Z"/><path class="cls-6" d="M140.32,443.39A193.43,193.43,0,0,0,118,446l-8.76,7.66L105.62,475l55.15-8.8-2.19-9.5,1.52-1.47-2.89-6a1.35,1.35,0,0,0-.05-.18l-9.79-4.28C145.73,444.67,142.55,443.22,140.32,443.39Z"/><path class="cls-4" d="M156.75,448.14c-5.05-4.39-12.71-5.91-18.14-6.2-15.86-.84-57.82,1.27-57.82,1.27s-21.92,1.37-26.71,8l-.58.92c0,.07-.72,1.74-.28,2.47l42.44.82,13.34-.18s4-10,29.06-10.18C154.79,445,159,457.23,159,457.23l3.28-.68S160.32,451.23,156.75,448.14Z"/><path class="cls-7" d="M57.27,458.16l-1.79,5.35a1,1,0,0,0,1,1.35l46.26.52a1,1,0,0,0,1-.77l1.4-5.62a1,1,0,0,0-1-1.27l-45.88-.27A1,1,0,0,0,57.27,458.16Z"/><path class="cls-7" d="M113.32,464.31a1.83,1.83,0,0,1-2-2.29c1.12-4,5.21-11.59,20.12-12.79,19.44-1.55,23.56,5.48,24.11,7.12.14.42.26.84.36,1.23a1.83,1.83,0,0,1-1.58,2.28Z"/><path class="cls-8" d="M68.06,465l6.83.08,1.39-7.51-6.59,0C69.37,458.93,68.56,462.5,68.06,465Z"/><polygon class="cls-8" points="90.02 457.63 82.43 457.59 81.13 465.14 88.19 465.22 90.02 457.63"/><path class="cls-8" d="M63,457.48l-4.71,0a1,1,0,0,0-1,.71l-1.79,5.35a1,1,0,0,0,1,1.35l4.21.05Z"/><path class="cls-8" d="M104.13,457.72l-7.47-.05-1.9,7.62,7.95.09a1,1,0,0,0,1-.77l1.4-5.62A1,1,0,0,0,104.13,457.72Z"/><path class="cls-8" d="M130.16,462.49l9-1L138.57,449a63.36,63.36,0,0,0-7.11.19c-.52,0-1,.1-1.52.15Z"/><path class="cls-8" d="M121.76,451.33c-7.16,2.85-9.59,7.71-10.42,10.69a1.83,1.83,0,0,0,2,2.29l7.3-.79Z"/><path class="cls-8" d="M155.93,457.58c-.1-.39-.22-.81-.36-1.23-.38-1.13-2.47-4.84-10.13-6.51l1.66,10.81,7.25-.79A1.83,1.83,0,0,0,155.93,457.58Z"/><polygon class="cls-4" points="276.05 416.01 284.11 452.23 286.49 451.7 278.31 414.93 276.05 416.01"/><polygon class="cls-9" points="287.08 453.62 285.68 453.62 285.58 439.55 287.08 439.28 287.08 453.62"/><rect class="cls-9" x="279.1" y="441.01" width="1.1" height="13.7"/><rect class="cls-9" x="272.53" y="442.11" width="1.1" height="13.7"/><rect class="cls-9" x="265.96" y="443.21" width="1.1" height="13.7"/><rect class="cls-9" x="259.38" y="444.3" width="1.1" height="13.7"/><path class="cls-10" d="M23.29,495.79a13.81,13.81,0,0,0,6.37,3.84c4,1.1,204.16,0,204.16,0l5.11-6.21Z"/><path class="cls-3" d="M138.86,1.11C135-8.2,112,134.22,109.85,206.53S105.47,432.24,112,432.24s103.38,7.68,138.06,6.57C250.1,438.81,149.81,27.49,138.86,1.11Z"/><path class="cls-11" d="M112,432.24s8.09-171.44,45.17-250.1S250.1,438.81,250.1,438.81s-43.73-.45-58.43-1.15C171.86,436.72,112,432.24,112,432.24Z"/><path class="cls-4" d="M137.56,2.48,183.82,464.9a2.23,2.23,0,0,0,2.24,2.19h0a2.22,2.22,0,0,0,1.75-2.59L140.11,2.05c-.41-1.91-1.44-3-2.34-.93h0A2.61,2.61,0,0,0,137.56,2.48Z"/><path class="cls-2" d="M157,27.76s-28.66,158.15-23.24,265.41S144,415.63,144,415.63s52.77,5,90.13,8.26,57.22,7.05,57.22,7.05S197.79,92.86,157,27.76Z"/><path class="cls-9" d="M253.9,445.16l-1.09.14v12.46l1.09-.14Z"/><path class="cls-9" d="M247.33,446l-1.1.14v12.42l1.1-.14Z"/><path class="cls-9" d="M240.76,446.88l-1.1.15V459.4l1.1-.14Z"/><path class="cls-9" d="M234.18,447.74l-1.09.15v12.33l1.09-.14Z"/><path class="cls-9" d="M227.61,448.61l-1.1.14V461l1.1-.14Z"/><path class="cls-9" d="M221,449.47l-1.09.14v11.82H221Z"/><path class="cls-9" d="M214.46,450.33l-1.1.15v10.95h1.1Z"/><path class="cls-9" d="M207.89,451.2l-1.1.14V463.5l1.1-.14Z"/><path class="cls-9" d="M202.41,451.92l-1.1.14v12.12l1.1-.13Z"/><path class="cls-9" d="M195.83,452.79l-1.09.14V465l1.09-.14Z"/><path class="cls-9" d="M189.26,453.65l-1.1.15v12l1.1-.14Z"/><path class="cls-9" d="M182.68,454.52l-1.09.15v12l1.09-.14Z"/><path class="cls-9" d="M176.11,455.4l-1.09.15v11.92l1.09-.14Z"/><path class="cls-9" d="M169.54,456.28l-.55.07-.55.08v11.86l1.1-.14Z"/><path class="cls-9" d="M163,457.11l-1.09.13v11.87L163,469Z"/><path class="cls-9" d="M156.39,457.86l-1.1.12v11.95l1.1-.14Z"/><path class="cls-9" d="M149.82,458.57l-1.1.11v12.07l1.1-.14Z"/><path class="cls-9" d="M143.24,459l-1.09.11V471.3l1.09-.14Z"/><path class="cls-9" d="M136.67,459.54l-1.1.11V472l1.1-.14Z"/><path class="cls-9" d="M130.09,460.28l-1.09.1v12.56l1.09-.14Z"/><path class="cls-9" d="M123.61,460.64l-1.1.1v12.75l1.1-.14Z"/><path class="cls-9" d="M98.32,462.8l-1.1.1v13.55l1.1-.14Z"/><path class="cls-9" d="M91.74,463.48l-1.09.1v13.78l1.09-.14Z"/><path class="cls-9" d="M85.17,464.07l-1.1.09v14l1.1-.14Z"/><polygon class="cls-9" points="78.6 464.86 77.5 464.86 77.5 479.33 78.6 479.19 78.6 464.86"/><polygon class="cls-9" points="72.02 465.17 70.93 465.17 70.93 480.46 72.02 480.32 72.02 465.17"/><path class="cls-9" d="M117,461.17l-1.1.1v12.94l1.1-.13Z"/><path class="cls-9" d="M110.37,461.78l-1.09.1V475l1.09-.14Z"/><path class="cls-9" d="M104.8,462.29l-1.09.1v13.33l1.09-.14Z"/><path class="cls-12" d="M15.49,468.82v-5.89c0-2.32,1.37-4.2,3.06-4.2h.09c1.68,0,3.05,1.88,3.05,4.2v5.92c0,2.72-1.85,4.72-3.77,4.09l-.09,0C16.46,472.45,15.49,470.77,15.49,468.82Z"/><path class="cls-13" d="M23.29,495.79h216.4L255,459.08s-133.68,17.53-164.9,18.63-86.56-4.93-86.56-4.93S4.12,491.4,23.29,495.79Z"/><path class="cls-12" d="M2.48,466.75s53.68,6,74.5,5.48,101.35-7.67,118.88-11,91.22-11.61,91.22-11.61,3.1,4.64-.28,5.59c-3.2.89-31.77,3.83-31.77,3.83,4.37-.18-137.11,17.95-176.95,19.54-20.09.8-73-5.84-74.51-5.84S-3,469.86,2.48,466.75Z"/><path class="cls-14" d="M274.39,371.31C245.53,271.22,187,75.65,157,27.76c0,0,8.49,136.77,39.23,211.48C222,301.85,262.07,355.56,274.39,371.31Z"/><path class="cls-15" d="M208.06,421.57c-1.24-13.83-5.53-42.4-20.06-90-17.05-55.84-43-76.83-54.76-84.9-.37,16.1-.28,31.79.47,46.51C139.12,400.43,144,415.63,144,415.63S176.16,418.68,208.06,421.57Z"/><path class="cls-6" d="M90.13,477.71c-31.23,1.09-86.56-4.93-86.56-4.93s.55,18.62,19.72,23c2.64-.17,110.88-3.31,155.6-27.15C143.07,472.94,105,477.19,90.13,477.71Z"/><path class="cls-16" d="M20.57,483.7c.06-1.5.89-2.69,1.87-2.65s1.72,1.27,1.67,2.77-.88,2.69-1.86,2.65S20.52,485.2,20.57,483.7Z"/><path class="cls-16" d="M27.21,483.92c.05-1.49.88-2.68,1.86-2.65s1.73,1.28,1.68,2.78-.89,2.68-1.86,2.65S27.16,485.42,27.21,483.92Z"/><path class="cls-16" d="M42.49,483.7c0-1.5.88-2.69,1.86-2.65s1.73,1.27,1.68,2.77-.89,2.69-1.87,2.65S42.44,485.2,42.49,483.7Z"/><path class="cls-16" d="M49.12,483.92c.05-1.49.89-2.68,1.86-2.65s1.73,1.28,1.68,2.78-.88,2.68-1.86,2.65S49.07,485.42,49.12,483.92Z"/><path class="cls-17" d="M121.47,488.63a3.4,3.4,0,0,1-2.25-.85,3.36,3.36,0,0,1-1.17-2.35,3.43,3.43,0,1,1,3.66,3.19Zm0-5.77h-.16a2.42,2.42,0,1,0,.16,0Z"/><path class="cls-7" d="M118.59,485.39a2.89,2.89,0,1,1,3.08,2.68A2.89,2.89,0,0,1,118.59,485.39Z"/><path class="cls-17" d="M132.26,487.89a3.41,3.41,0,0,1-3.42-3.2h0a3.44,3.44,0,0,1,5.68-2.82,3.44,3.44,0,0,1,.33,4.85,3.39,3.39,0,0,1-2.35,1.16Zm-2.33-3.27a2.34,2.34,0,1,0,2.17-2.49,2.32,2.32,0,0,0-2.17,2.49Z"/><path class="cls-7" d="M129.38,484.66a2.89,2.89,0,1,1,3.08,2.68A2.9,2.9,0,0,1,129.38,484.66Z"/><path class="cls-17" d="M153.84,486.42a3.43,3.43,0,0,1-2.58-5.69,3.43,3.43,0,1,1,2.82,5.68Zm0-5.77h-.16a2.27,2.27,0,1,0,.16,0Z"/><path class="cls-7" d="M151,483.18a2.89,2.89,0,1,1,3.08,2.69A2.9,2.9,0,0,1,151,483.18Z"/><path class="cls-17" d="M164.63,485.69a3.44,3.44,0,0,1-3.42-3.2h0a3.43,3.43,0,0,1,5.68-2.82,3.42,3.42,0,0,1,.33,4.84,3.4,3.4,0,0,1-2.35,1.17Zm0-5.77h-.16a2.34,2.34,0,0,0-2.17,2.49h0a2.32,2.32,0,0,0,.8,1.6,2.28,2.28,0,0,0,1.69.57,2.33,2.33,0,0,0-.16-4.66Z"/><path class="cls-18" d="M161.76,482.45a2.88,2.88,0,1,1,3.07,2.68A2.87,2.87,0,0,1,161.76,482.45Z"/><path class="cls-17" d="M185,484.63a3.43,3.43,0,0,1-3.42-3.2h0a3.43,3.43,0,1,1,3.66,3.19Zm-2.33-3.28a2.34,2.34,0,1,0,2.17-2.49,2.34,2.34,0,0,0-2.17,2.49Z"/><path class="cls-18" d="M182.16,481.39a2.89,2.89,0,1,1,3.08,2.68A2.89,2.89,0,0,1,182.16,481.39Z"/><path class="cls-17" d="M195.83,483.89a3.42,3.42,0,0,1-3.42-3.2A3.44,3.44,0,0,1,195.6,477a3.44,3.44,0,0,1,2.82,5.69,3.39,3.39,0,0,1-2.35,1.16Zm0-5.77h-.17a2.31,2.31,0,0,0-1.6.79,2.33,2.33,0,0,0-.57,1.7h0a2.32,2.32,0,0,0,.8,1.6,2.28,2.28,0,0,0,1.69.57,2.32,2.32,0,0,0,1.6-.8,2.28,2.28,0,0,0,.57-1.69,2.34,2.34,0,0,0-2.32-2.18Z"/><path class="cls-18" d="M193,480.65a2.88,2.88,0,1,1,3.07,2.69A2.88,2.88,0,0,1,193,480.65Z"/><polygon class="cls-12" points="70.93 465.7 70.92 464.62 162.91 456.56 260.4 443.76 286.68 439.38 286.86 440.46 260.57 444.84 163.03 457.65 70.93 465.7"/><path class="cls-15" d="M108.54,261.2c5.33-18.21,20.27-72.25,24-117.27C137,88.86,137.56,2.48,137.56,2.48l-.5.45c-6.65,18-25.25,138.87-27.21,203.6C109.39,221.86,108.92,240.82,108.54,261.2Z"/></svg>