<svg id="Camada_1" data-name="Camada 1" xmlns="http://www.w3.org/2000/svg" viewBox="0 0 391.47 127.59"><defs><style>.cls-1{fill:#33658e;}.cls-2{fill:#eae7e2;}.cls-3{fill:#7f898e;}.cls-4{fill:#aab1cc;}.cls-5{fill:#0b5989;}.cls-6{fill:#192e41;}.cls-7{fill:#cdc5bb;}.cls-8{fill:#254461;}.cls-9{fill:#ff7e78;}.cls-10{fill:#ef3f3f;}.cls-11{fill:#ff6c6c;}</style></defs><path class="cls-1" d="M246.82,58.87c-.19-.27-19.15-26.45-24.35-32.89-4.66-5.77-9.61-2.7-9.81-2.57l-1-1.58c.06,0,6.56-4.15,12.31,3,5.23,6.49,24.22,32.71,24.41,33Z"/><path class="cls-1" d="M355.74,64.23a39.84,39.84,0,0,0-2-6.34,6.52,6.52,0,0,0-5.91-4.16L241.78,51.21l.05-1.88L347.9,51.84h0a8.37,8.37,0,0,1,7.64,5.39A38.85,38.85,0,0,1,357.6,64Z"/><rect class="cls-1" x="317.52" y="52.28" width="1.89" height="8.8"/><rect class="cls-1" x="282.08" y="51.03" width="1.89" height="9.05"/><path class="cls-2" d="M173.51,1.13c1,0,23-1.13,23-1.13l11.17,19.45-52.27,4.18Z"/><polygon class="cls-3" points="188.77 2.26 194.3 2.01 204.61 19.57 176.15 20.36 188.77 2.26"/><polygon class="cls-4" points="174.94 3.27 185.5 2.51 172.38 21.87 159.43 23.63 174.94 3.27"/><path class="cls-1" d="M135.8,27.09c-.06-.16-1.47-4.08.41-7.31,1.15-2,3.22-3.22,6.17-3.71,8.84-1.47,39.71-3.48,41-3.56l.8,0,2.47,10.84-1.84.42-2.11-9.28c-5,.33-32.06,2.16-40,3.49-2.36.39-4,1.33-4.84,2.79-1.44,2.45-.29,5.69-.28,5.73Z"/><rect class="cls-1" x="161.62" y="14.83" width="1.51" height="9.69"/><rect class="cls-1" x="145.03" y="17.07" width="1.51" height="8.57"/><path class="cls-4" d="M105.09,62.56c0-.06-4.91-6.29-9.88-9.75S71.56,46,60.14,44.54C43,42.34,26.76,40.47,16.77,41.86a3,3,0,0,0-2.43,1.46c-1.51,2.59.47,8,1.35,9.89l-1.45.62c-.14-.3-3.49-7.45-1.3-11.24a4.62,4.62,0,0,1,3.6-2.23C26.73,39,43.08,40.83,60.35,43c10,1.28,30.28,4.72,35.8,8.56,5.18,3.59,10,9.81,10.22,10.07Z"/><path class="cls-5" d="M32.37,57.53S57.82,80.71,68,96.55s33.93,29.4,49.76,30.53,263,0,263,0S390.91,109,391.47,103.9l-10.74-26L191.28,72.79l-7.92-10.17Z"/><path class="cls-6" d="M380.73,77.88,191.28,72.79l-7.92-10.17-151-5.09s1.67,1.51,4.31,4L182,66.39l8,10.18,192.29,5.08Z"/><path class="cls-7" d="M380.73,77.88,191.28,72.79l-7.92-10.17-151-5.09,1.36-5.72,52.93,2.32,41.28-26.58s24.52-7.28,61-8.7a122,122,0,0,1,17.27.43,13,13,0,0,1,9.14,5.22l24,32.46S370,60.35,372.25,62.05Z"/><polygon class="cls-3" points="132.47 46.41 150.22 31.27 204.28 28.66 213.9 45.55 200.32 55.29 137.52 51.39 132.47 46.41"/><polygon class="cls-1" points="136.76 46.38 151.26 33.88 201.84 31.59 209.84 44.47 199.4 52.13 139.89 49.17 136.76 46.38"/><path class="cls-7" d="M31.8,57.48,2.12,55A2.31,2.31,0,0,1,0,52.43H0a2.33,2.33,0,0,1,2.42-2.06l31.92,1.52a2.31,2.31,0,0,1,.8,4.44l-2.25,1A2.32,2.32,0,0,1,31.8,57.48Z"/><path class="cls-2" d="M101.1,58.37l50.54-35.75s-8.67,1.26-13.45,2.26c-2.56.54-10.25,2.67-10.25,2.67L86.66,54.13l10.21,4.65A4.28,4.28,0,0,0,101.1,58.37Z"/><path class="cls-3" d="M112.55,60.29a36.19,36.19,0,0,0-9.85-9.9c-8-5-28.15-8.33-39.44-9.86-21.89-3-38.74-4.06-48.73-3.17a2.53,2.53,0,0,0-2,1.16c-1.85,2.84-.07,10,.77,12.55l-1.43,0c-.13-.4-3.23-9.39-.6-13.41a4,4,0,0,1,3.14-1.84C27.15,34.72,48.12,37,63.46,39c13.94,1.89,32.2,5.17,40,10.07,6.13,3.83,10.83,10.92,11,11.25Z"/><path class="cls-8" d="M61.53,87.6S84,98,118.33,102.77c11.65,1.6,32.23,3.28,56.08,4.84a211.19,211.19,0,0,0-29.5-18.42C103.06,67.71,32.37,57.53,32.37,57.53S57.82,80.71,68,96.55s33.93,29.4,49.76,30.53c5.49.4,38.73.52,79.84.51a208.43,208.43,0,0,0-17.4-15.52c-30.1-2-56.13-4.14-67-5.91C82.14,101.07,61.53,87.6,61.53,87.6Z"/><path class="cls-9" d="M322.36,112.75c-20.9-.4-93.05-1.54-148-5.14,2,1.5,3.94,3,5.79,4.46,56.4,3.8,123.86,5.09,139,5.09,18.11,0,67.23-.87,67.23-.87l1.68-3.5S349.5,113.26,322.36,112.75Z"/><path class="cls-10" d="M118.33,102.77C84,98,61.53,87.6,61.53,87.6s20.61,13.47,51.71,18.56c10.83,1.77,36.86,3.89,67,5.91-1.85-1.47-3.77-3-5.79-4.46C150.56,106.05,130,104.37,118.33,102.77Z"/><path class="cls-8" d="M156.28,50l14.72.74c1.22-5,3.06-12.52,4.27-17.92l-10,.45Z"/><path class="cls-8" d="M193.68,32l-8.86.4v19l14.58.73,0,0C198.08,47.38,195.52,38.36,193.68,32Z"/><polygon class="cls-8" points="156.17 33.66 151.26 33.88 136.76 46.38 139.87 49.15 156.17 33.66"/><polygon class="cls-11" points="190 76.57 382.28 81.65 387.27 93.58 197.46 88.14 190 76.57"/><path class="cls-6" d="M169.84,70a10.1,10.1,0,1,0,10.1,10.1A10.1,10.1,0,0,0,169.84,70Zm0,15.56a5.47,5.47,0,1,1,5.47-5.46A5.47,5.47,0,0,1,169.84,85.59Z"/><path class="cls-6" d="M241.13,102.85l-14.47-.25a2.18,2.18,0,0,1-2.13-2.21h0a2.16,2.16,0,0,1,2.2-2.13l14.47.25a2.17,2.17,0,0,1,2.13,2.21h0A2.17,2.17,0,0,1,241.13,102.85Z"/><path class="cls-6" d="M270.06,103.36l-14.47-.25a2.19,2.19,0,0,1-2.13-2.21h0a2.17,2.17,0,0,1,2.21-2.13l14.47.25a2.18,2.18,0,0,1,2.13,2.21h0A2.17,2.17,0,0,1,270.06,103.36Z"/><path class="cls-6" d="M299,103.87l-14.47-.25a2.19,2.19,0,0,1-2.13-2.21h0a2.16,2.16,0,0,1,2.21-2.13l14.47.25a2.17,2.17,0,0,1,2.13,2.21h0A2.18,2.18,0,0,1,299,103.87Z"/><path class="cls-6" d="M327.94,104.38l-14.47-.25a2.17,2.17,0,0,1-2.13-2.21h0a2.16,2.16,0,0,1,2.2-2.13L328,100a2.17,2.17,0,0,1,2.13,2.21h0A2.17,2.17,0,0,1,327.94,104.38Z"/><path class="cls-6" d="M356.87,104.89l-14.47-.25a2.19,2.19,0,0,1-2.13-2.21h0a2.17,2.17,0,0,1,2.21-2.13l14.47.25a2.18,2.18,0,0,1,2.13,2.21h0A2.17,2.17,0,0,1,356.87,104.89Z"/></svg>