<svg id="Camada_1" data-name="Camada 1" xmlns="http://www.w3.org/2000/svg" viewBox="0 0 1538.18 353.17"><defs><style>.cls-1{fill:#7aa4c1;}.cls-2{fill:#d7dfec;}.cls-3{fill:#9fadba;}.cls-4{fill:#a8d2ee;}.cls-5{fill:#4c5d6a;}.cls-6{fill:#c7dbe5;}.cls-7{fill:#33658e;}.cls-8{fill:#254461;}.cls-9{fill:#aab1cc;}.cls-10{fill:#f45656;}.cls-11{fill:#7f898e;}.cls-12{fill:#192e41;}</style></defs><polygon class="cls-1" points="1011.24 12.87 1014.46 0 1053.07 0 1059.51 12.87 1011.24 12.87"/><polygon class="cls-2" points="999.17 8.85 986.3 103.78 1084.9 103.02 1069.21 10.1 999.17 8.85"/><polygon class="cls-3" points="543.83 45.85 535.79 84.47 553.49 84.47 543.83 45.85"/><polygon class="cls-3" points="893.78 69.99 885.74 108.61 903.44 108.61 893.78 69.99"/><polygon class="cls-3" points="1224.43 65.16 1216.38 103.78 1234.08 103.78 1224.43 65.16"/><path class="cls-4" d="M0,226.06l12.87,9.65L252.69,253.9l205.87,15.6,1070,6.44,9.66-8.05s-62.75-93.32-75.63-94.93l4.83-16.09s4.83-6.43-4.83-9.65-86.88,0-86.88,0l-4.83-12.87s6.44-3.22,0-8-64.36-3.21-64.36-3.21V108.61h-17.69V86.08L1210,87.69l-10.46-10.46H1090.88V99H960.56l-12.88,9.66H931.59V94.12H846.32v22.53L652,115.89,621.41,90.14,320.19,81.25,293.64,107.8l-.06,12.11-8.85,4.42c-6,.81-7.24,1.61-12.87,1.17H259l-18.9,18.9,11,1.27,1.6,12-14.22,20.17-29.31-1.65-38.62,48.27Z"/><path class="cls-5" d="M508.43,143.2h-37a7.26,7.26,0,0,1-7.24-7.24h0a7.26,7.26,0,0,1,7.24-7.24h37a7.27,7.27,0,0,1,7.25,7.24h0A7.27,7.27,0,0,1,508.43,143.2Z"/><path class="cls-6" d="M320.19,81.25l-23.79,27.4-7.24,13.67-31,2.82L240.14,144.4l11.61,12.92-13.27,20.51-67.93,46.62L317,233.3l38.61-49.88h27.3s31.38-4,34.19-22.48L405,148.57l10.45-20.21,4.43-9.66,13.47-7.84,5.89-14.32Z"/><path class="cls-5" d="M613.42,142.39H540.21a7.26,7.26,0,0,1-7.24-7.24h0a7.26,7.26,0,0,1,7.24-7.24h73.21a7.26,7.26,0,0,1,7.24,7.24h0A7.26,7.26,0,0,1,613.42,142.39Z"/><path class="cls-5" d="M1354.35,142.39H648.82a7.25,7.25,0,0,1-7.24-7.24h0a7.26,7.26,0,0,1,7.24-7.24h705.53a7.26,7.26,0,0,1,7.24,7.24h0A7.26,7.26,0,0,1,1354.35,142.39Z"/><path class="cls-7" d="M549.49,150.92l917.89,6-.8,20.52L537.4,167.73v-4.79A12,12,0,0,1,549.49,150.92Z"/><path class="cls-8" d="M1458.82,192.94l-1035.73-7a12.32,12.32,0,0,0-12.4,12.32h0A11.78,11.78,0,0,0,422.42,210l1071.1,4.76a1.5,1.5,0,0,0,1.16-2.46l-3.34-4A42.73,42.73,0,0,0,1458.82,192.94Z"/><path class="cls-7" d="M1110.59,265.48H487.92a18.15,18.15,0,0,1-18.1-18.1h0a18.15,18.15,0,0,1,18.1-18.1h622.67a18.15,18.15,0,0,1,18.1,18.1h0A18.15,18.15,0,0,1,1110.59,265.48Z"/><rect class="cls-4" x="531.36" y="222.04" width="6.03" height="43.44"/><rect class="cls-4" x="623.07" y="222.04" width="6.03" height="43.44"/><rect class="cls-4" x="709.96" y="222.04" width="6.04" height="43.44"/><rect class="cls-4" x="799.26" y="222.04" width="6.03" height="43.44"/><rect class="cls-4" x="886.14" y="222.04" width="6.03" height="43.44"/><rect class="cls-4" x="973.02" y="222.04" width="6.03" height="43.44"/><rect class="cls-4" x="1055.08" y="222.04" width="6.03" height="43.44"/><rect class="cls-4" x="455.08" y="183.73" width="2.78" height="31.97"/><rect class="cls-4" x="497.39" y="183.73" width="2.78" height="31.97"/><rect class="cls-4" x="537.47" y="183.73" width="2.78" height="31.97"/><rect class="cls-4" x="578.66" y="183.73" width="2.78" height="31.97"/><rect class="cls-4" x="618.73" y="183.73" width="2.78" height="31.97"/><rect class="cls-4" x="658.81" y="183.73" width="2.78" height="31.97"/><rect class="cls-4" x="696.66" y="175.42" width="2.78" height="43.44"/><rect class="cls-4" x="696.43" y="183.73" width="2.78" height="31.97"/><rect class="cls-4" x="738.73" y="183.73" width="2.78" height="31.97"/><rect class="cls-4" x="778.81" y="183.73" width="2.78" height="31.97"/><rect class="cls-4" x="820" y="183.73" width="2.78" height="31.97"/><rect class="cls-4" x="860.08" y="183.73" width="2.78" height="31.97"/><rect class="cls-4" x="900.16" y="183.73" width="2.78" height="31.97"/><rect class="cls-4" x="938.01" y="175.42" width="2.78" height="43.44"/><rect class="cls-4" x="937.77" y="183.73" width="2.78" height="31.97"/><rect class="cls-4" x="980.08" y="183.73" width="2.78" height="31.97"/><rect class="cls-4" x="1020.16" y="183.73" width="2.78" height="31.97"/><rect class="cls-4" x="1061.35" y="183.73" width="2.78" height="31.97"/><rect class="cls-4" x="1101.43" y="183.73" width="2.78" height="31.97"/><rect class="cls-4" x="1141.5" y="183.73" width="2.78" height="31.97"/><rect class="cls-4" x="1179.35" y="175.42" width="2.78" height="43.44"/><rect class="cls-4" x="1179.12" y="183.73" width="2.78" height="31.97"/><rect class="cls-4" x="1221.43" y="183.73" width="2.78" height="31.97"/><rect class="cls-4" x="1261.5" y="183.73" width="2.78" height="31.97"/><rect class="cls-4" x="1302.69" y="183.73" width="2.78" height="31.97"/><rect class="cls-4" x="1342.77" y="183.73" width="2.78" height="31.97"/><rect class="cls-4" x="1382.85" y="183.73" width="2.78" height="31.97"/><rect class="cls-4" x="1420.7" y="183.73" width="2.78" height="31.97"/><rect class="cls-4" x="572.74" y="146.46" width="2.47" height="32.58"/><rect class="cls-4" x="610.33" y="146.46" width="2.47" height="32.58"/><rect class="cls-4" x="645.93" y="146.46" width="2.47" height="32.58"/><rect class="cls-4" x="682.53" y="146.46" width="2.47" height="32.58"/><rect class="cls-4" x="718.14" y="146.46" width="2.47" height="32.58"/><rect class="cls-4" x="753.75" y="146.46" width="2.47" height="32.58"/><rect class="cls-4" x="787.38" y="146.46" width="2.47" height="32.58"/><rect class="cls-4" x="787.17" y="146.46" width="2.47" height="32.58"/><rect class="cls-4" x="824.76" y="146.46" width="2.47" height="32.58"/><rect class="cls-4" x="860.36" y="146.46" width="2.47" height="32.58"/><rect class="cls-4" x="896.96" y="146.46" width="2.47" height="32.58"/><rect class="cls-4" x="932.57" y="146.46" width="2.47" height="32.58"/><rect class="cls-4" x="968.18" y="146.46" width="2.47" height="32.58"/><rect class="cls-4" x="1001.81" y="146.46" width="2.47" height="32.58"/><rect class="cls-4" x="1001.6" y="146.46" width="2.47" height="32.58"/><rect class="cls-4" x="1039.19" y="146.46" width="2.47" height="32.58"/><rect class="cls-4" x="1074.79" y="146.46" width="2.47" height="32.58"/><rect class="cls-4" x="1111.39" y="146.46" width="2.47" height="32.58"/><rect class="cls-4" x="1147" y="146.46" width="2.47" height="32.58"/><rect class="cls-4" x="1182.61" y="146.46" width="2.47" height="32.58"/><rect class="cls-4" x="1216.24" y="146.46" width="2.47" height="32.58"/><rect class="cls-4" x="1216.03" y="146.46" width="2.47" height="32.58"/><rect class="cls-4" x="1253.61" y="146.46" width="2.47" height="32.58"/><rect class="cls-4" x="1289.22" y="146.46" width="2.47" height="32.58"/><rect class="cls-4" x="1325.82" y="146.46" width="2.47" height="32.58"/><rect class="cls-4" x="1361.43" y="146.46" width="2.47" height="32.58"/><rect class="cls-4" x="1397.04" y="146.46" width="2.47" height="32.58"/><rect class="cls-4" x="1430.66" y="146.46" width="2.47" height="32.58"/><rect class="cls-4" x="670.46" y="121.12" width="1.89" height="25.34"/><rect class="cls-4" x="699.19" y="121.12" width="1.89" height="25.34"/><rect class="cls-4" x="726.39" y="121.12" width="1.89" height="25.34"/><rect class="cls-4" x="754.36" y="121.12" width="1.89" height="25.34"/><rect class="cls-4" x="781.57" y="121.12" width="1.89" height="25.34"/><rect class="cls-4" x="808.78" y="121.12" width="1.89" height="25.34"/><rect class="cls-4" x="834.48" y="121.12" width="1.89" height="25.34"/><rect class="cls-4" x="834.32" y="121.12" width="1.89" height="25.34"/><rect class="cls-4" x="863.04" y="121.12" width="1.89" height="25.34"/><rect class="cls-4" x="890.25" y="121.12" width="1.89" height="25.34"/><rect class="cls-4" x="918.21" y="121.12" width="1.89" height="25.34"/><rect class="cls-4" x="945.42" y="121.12" width="1.89" height="25.34"/><rect class="cls-4" x="972.63" y="121.12" width="1.89" height="25.34"/><rect class="cls-4" x="998.33" y="121.12" width="1.89" height="25.34"/><rect class="cls-4" x="998.17" y="121.12" width="1.89" height="25.34"/><rect class="cls-4" x="1026.89" y="121.12" width="1.89" height="25.34"/><rect class="cls-4" x="1054.1" y="121.12" width="1.89" height="25.34"/><rect class="cls-4" x="1082.07" y="121.12" width="1.89" height="25.34"/><rect class="cls-4" x="1109.28" y="121.12" width="1.89" height="25.34"/><rect class="cls-4" x="1136.49" y="121.12" width="1.89" height="25.34"/><rect class="cls-4" x="1162.18" y="121.12" width="1.89" height="25.34"/><rect class="cls-4" x="1162.02" y="121.12" width="1.89" height="25.34"/><rect class="cls-4" x="1190.75" y="121.12" width="1.89" height="25.34"/><rect class="cls-4" x="1217.96" y="121.12" width="1.89" height="25.34"/><rect class="cls-4" x="1245.92" y="121.12" width="1.89" height="25.34"/><rect class="cls-4" x="1273.13" y="121.12" width="1.89" height="25.34"/><rect class="cls-4" x="1300.34" y="121.12" width="1.89" height="25.34"/><rect class="cls-4" x="1326.04" y="123.69" width="1.89" height="22.77"/><path class="cls-7" d="M1419.38,240.06H1361a5.4,5.4,0,0,1-5.39-5.39h0a5.41,5.41,0,0,1,5.39-5.39h58.43a5.41,5.41,0,0,1,5.4,5.39h0A5.41,5.41,0,0,1,1419.38,240.06Z"/><polygon class="cls-6" points="439.25 96.54 433.36 110.86 336.22 108.45 300.62 103.02 301.63 99.4 309.27 92.56 358.55 90.34 439.25 96.54"/><path class="cls-9" d="M1448.6,252.65h-89.9a3.15,3.15,0,0,1-3.14-3.15h0a3.15,3.15,0,0,1,3.14-3.14h89.9a3.15,3.15,0,0,1,3.14,3.14h0A3.15,3.15,0,0,1,1448.6,252.65Z"/><path class="cls-7" d="M1303.79,252.65H1213.9a3.16,3.16,0,0,1-3.15-3.15h0a3.15,3.15,0,0,1,3.15-3.14h89.89a3.15,3.15,0,0,1,3.15,3.14h0A3.16,3.16,0,0,1,1303.79,252.65Z"/><path class="cls-5" d="M422.15,238.93H382.33a6.66,6.66,0,0,1-6.64-6.64h0a6.65,6.65,0,0,1,6.64-6.63h39.82a6.65,6.65,0,0,1,6.64,6.63h0A6.66,6.66,0,0,1,422.15,238.93Z"/><path class="cls-5" d="M387.16,208.76h-7.24a5.44,5.44,0,0,1-5.43-5.43h0a5.45,5.45,0,0,1,5.43-5.43h7.24a5.45,5.45,0,0,1,5.43,5.43h0A5.44,5.44,0,0,1,387.16,208.76Z"/><path class="cls-10" d="M544.64,116.65l-.38-.64a14.28,14.28,0,0,0-12.16-7c-40.21-.38-217.64-2.45-230.47-9.58l-8,8.4s45,4.89,81.2,6.08C413,115.13,544.64,116.65,544.64,116.65Z"/><path class="cls-11" d="M309.27,92.56l10.92-11.31,127.05.65-8,14.64S343.06,97.38,309.27,92.56Z"/><path class="cls-5" d="M629.71,85.3l42,31-45.8-1.21-.28-5.39a10.68,10.68,0,0,0-10.47-10.11l-175.89-3,8-14.64,163-2.83A32,32,0,0,1,629.71,85.3Z"/><path class="cls-12" d="M143.2,353.17H1507.6s22.53-17.7,30.58-85.28c0,0-1055.49-6.43-1095.71-6.43s-429.6-25.75-429.6-25.75S90.1,292,143.2,353.17Z"/><rect class="cls-4" x="546.19" y="237.36" width="69.19" height="17.7" rx="8.44"/><path class="cls-10" d="M615.34,245.41a8.44,8.44,0,0,0-8.4-8H554.63a8.44,8.44,0,0,0-8.4,8Z"/><rect class="cls-4" x="635.49" y="237.36" width="69.19" height="17.7" rx="8.44"/><path class="cls-10" d="M704.63,245.41a8.44,8.44,0,0,0-8.39-8H643.93a8.44,8.44,0,0,0-8.4,8Z"/><rect class="cls-4" x="722.37" y="237.36" width="69.19" height="17.7" rx="8.44"/><path class="cls-10" d="M791.52,245.41a8.44,8.44,0,0,0-8.4-8H730.81a8.44,8.44,0,0,0-8.4,8Z"/><path class="cls-4" d="M527.74,45.86A16.09,16.09,0,1,1,543.83,62,16.09,16.09,0,0,1,527.74,45.86Z"/><path class="cls-5" d="M240.14,144.4,405,148.57a12.37,12.37,0,0,1,12.06,12.37h0l-165.32-3.62Z"/><polygon class="cls-2" points="170.55 224.45 316.97 233.3 355.58 183.42 209.17 176.18 170.55 224.45"/><path class="cls-5" d="M293.18,113.47s-5.23,9.26-4,8.85,126.3,6,126.3,6l6-9.66Z"/><path class="cls-6" d="M432.36,115.49,293.64,107.8s-6.89,3.66-.46,5.67c0,0,123.09,8.85,140,6.84C433.16,120.31,438.39,117.09,432.36,115.49Z"/><path class="cls-5" d="M267.66,170.51l-9.05-.27a3.32,3.32,0,0,1-3.21-3.41h0a3.32,3.32,0,0,1,3.41-3.22l9.05.26a3.35,3.35,0,0,1,3.22,3.42h0A3.34,3.34,0,0,1,267.66,170.51Z"/><path class="cls-5" d="M291.79,171.22l-9.05-.27a3.32,3.32,0,0,1-3.22-3.41h0a3.32,3.32,0,0,1,3.41-3.22l9.05.27A3.32,3.32,0,0,1,295.2,168h0A3.32,3.32,0,0,1,291.79,171.22Z"/><path class="cls-5" d="M315.91,171.93l-9.05-.27a3.33,3.33,0,0,1-3.22-3.41h0a3.34,3.34,0,0,1,3.42-3.22l9.05.27a3.32,3.32,0,0,1,3.21,3.41h0A3.32,3.32,0,0,1,315.91,171.93Z"/><path class="cls-5" d="M340,172.64l-9-.26a3.33,3.33,0,0,1-3.22-3.42h0a3.33,3.33,0,0,1,3.41-3.22l9.05.27a3.33,3.33,0,0,1,3.22,3.41h0A3.33,3.33,0,0,1,340,172.64Z"/><path class="cls-5" d="M364.16,173.35l-9.05-.26a3.34,3.34,0,0,1-3.22-3.42h0a3.34,3.34,0,0,1,3.42-3.22l9,.27a3.32,3.32,0,0,1,3.22,3.42h0A3.32,3.32,0,0,1,364.16,173.35Z"/><path class="cls-2" d="M875.28,69.19A17.7,17.7,0,1,1,893,86.88,17.69,17.69,0,0,1,875.28,69.19Z"/><path class="cls-2" d="M1206.73,62a17.7,17.7,0,1,1,17.7,17.69A17.69,17.69,0,0,1,1206.73,62Z"/><path class="cls-8" d="M531.66,320.86C429.35,282.49,12.87,235.71,12.87,235.71S90.1,292,143.2,353.17H608.13C584.81,342.41,559.17,331.18,531.66,320.86Z"/></svg>