<?xml version="1.0" encoding="utf-8"?>
<!-- Generator: Adobe Illustrator 26.0.0, SVG Export Plug-In . SVG Version: 6.00 Build 0)  -->
<svg version="1.1" id="Camada_1" xmlns="http://www.w3.org/2000/svg" xmlns:xlink="http://www.w3.org/1999/xlink" x="0px" y="0px"
	 viewBox="0 0 64 64" style="enable-background:new 0 0 64 64;" xml:space="preserve">
<style type="text/css">
	.st0{fill:#FFDC78;}
	.st1{fill:#FFB145;}
	.st2{fill:#E8A04B;}
</style>
<g transform="translate(0.015 0.004)">
	<path class="st0" d="M63,42c-4,7-13.2,11-22,11c-14.4,0-26-11.6-26-26C15.1,13.5,25.5,2.2,39,1c-3.2,4.4-4.9,9.6-5,15
		c0,14.4,11.6,26,26,26H63z"/>
	<path class="st1" d="M21,25c0.1-10.1,6-19.3,15.1-23.6C23.9,3.9,15.1,14.6,15,27c0,14.4,11.6,26,26,26c4.3,0,8.5-0.9,12.4-2.7
		C51.3,50.8,49.2,51,47,51C32.6,51,21,39.4,21,25z"/>
	<path class="st2" d="M42.9,51.9l0.1,2c0.7,0,1.4-0.1,2.1-0.2l-0.3-2C44.2,51.8,43.6,51.9,42.9,51.9z"/>
	<path class="st2" d="M63.9,41.5C63.7,41.2,63.4,41,63,41h-3c-13.8,0-25-11.2-25-25c0.1-5.2,1.8-10.2,4.8-14.4
		c0.3-0.5,0.2-1.1-0.2-1.4C39.4,0,39.2,0,38.9,0C24.9,1.3,14.1,12.9,14,27c0,2.5,0.3,4.9,1,7.3l1.9-0.5C16.3,31.5,16,29.3,16,27
		c0.1-12.2,8.9-22.6,21-24.7c-2.5,4.1-3.9,8.9-4,13.7c0,14.9,12.1,27,27,27h1.2c-3,4.1-8.2,7.2-14.4,8.4l0.4,2
		c7.5-1.5,13.6-5.5,16.7-10.9C64,42.2,64,41.8,63.9,41.5L63.9,41.5z"/>
</g>
</svg>
