<?xml version="1.0" encoding="utf-8"?>
<!-- Generator: Adobe Illustrator 26.0.0, SVG Export Plug-In . SVG Version: 6.00 Build 0)  -->
<svg version="1.1" id="Camada_1" xmlns="http://www.w3.org/2000/svg" xmlns:xlink="http://www.w3.org/1999/xlink" x="0px" y="0px"
	 viewBox="0 0 62 62" style="enable-background:new 0 0 62 62;" xml:space="preserve">
<style type="text/css">
	.st0{fill:#FFB145;}
	.st1{fill:#FCA124;}
</style>
<g transform="translate(-1 -1)">
	<circle class="st0" cx="32" cy="32" r="20"/>
	<path class="st1" d="M36,44c-11,0-20-8.9-20-19.9c0-1.6,0.2-3.3,0.6-4.9c-7,8.5-5.9,21.1,2.6,28.2s21.1,5.9,28.2-2.6
		c1.9-2.3,3.3-5.1,4-8C47.6,41.3,42,44,36,44z"/>
	<path class="st0" d="M50.8,29.1c-0.1-0.6-0.2-1.3-0.4-1.9l1.9-0.5c0.2,0.7,0.3,1.4,0.4,2.1L50.8,29.1z"/>
	<path class="st0" d="M12,38.3C8.5,27.2,14.7,15.4,25.7,12c10.6-3.3,22,2.2,26,12.7l-1.9,0.7c-3.7-9.8-14.6-14.8-24.5-11.1
		c-9.4,3.5-14.5,13.8-11.5,23.5L12,38.3z"/>
	<path class="st0" d="M32,53c-8.4,0-15.9-4.9-19.3-12.6l1.8-0.8c4.2,9.6,15.4,14,25,9.8C46.5,46.4,51,39.6,51,32c0-0.3,0-0.6,0-1
		l2-0.1c0,0.3,0,0.7,0,1C53,43.6,43.6,53,32,53z"/>
	<rect x="31" y="1" class="st1" width="2" height="8"/>
	<rect x="31" y="55" class="st1" width="2" height="8"/>
	<rect x="55" y="31" class="st1" width="8" height="2"/>
	<rect x="1" y="31" class="st1" width="8" height="2"/>
	<rect x="50.1" y="47.1" transform="matrix(0.7071 -0.7071 0.7071 0.7071 -21.1631 51.0909)" class="st1" width="2" height="8"/>
	<rect x="11.9" y="8.9" transform="matrix(0.7071 -0.7071 0.7071 0.7071 -5.347 12.9078)" class="st1" width="2" height="8"/>
	<rect x="8.9" y="50.1" transform="matrix(0.7071 -0.7071 0.7071 0.7071 -32.3478 24.0916)" class="st1" width="8" height="2"/>
	<rect x="47.1" y="11.9" transform="matrix(0.7071 -0.7071 0.7071 0.7071 5.8373 39.9077)" class="st1" width="8" height="2"/>
</g>
</svg>
