<svg xmlns="http://www.w3.org/2000/svg" xmlns:xlink="http://www.w3.org/1999/xlink" viewBox="0,0,256,256" width="16px" height="16px"><g fill="none" fill-rule="nonzero" stroke="none" stroke-width="1" stroke-linecap="butt" stroke-linejoin="miter" stroke-miterlimit="10" stroke-dasharray="" stroke-dashoffset="0" font-family="none" font-weight="none" font-size="none" text-anchor="none" style="mix-blend-mode: normal"><g transform="scale(3.2,3.2)"><path d="M40,2c-21,0 -38,17 -38,38c0,21 17,38 38,38c21,0 38,-17 38,-38c0,-21 -17,-38 -38,-38zM12,40c0,-15.5 12.5,-28 28,-28c5.9,0 11.4,1.9 15.9,5l-38.9,38.9c-3.1,-4.5 -5,-10 -5,-15.9zM40,68c-5.9,0 -11.4,-1.9 -15.9,-5l38.9,-38.9c3.1,4.5 5,10 5,15.9c0,15.5 -12.5,28 -28,28z" fill="#33d3bf"></path><path d="M40,78.5c-21.2,0 -38.5,-17.3 -38.5,-38.5c0,-21.2 17.3,-38.5 38.5,-38.5c21.2,0 38.5,17.3 38.5,38.5c0,21.2 -17.3,38.5 -38.5,38.5zM40,2.5c-20.7,0 -37.5,16.8 -37.5,37.5c0,20.7 16.8,37.5 37.5,37.5c20.7,0 37.5,-16.8 37.5,-37.5c0,-20.7 -16.8,-37.5 -37.5,-37.5zM40,68.5c-5.8,0 -11.4,-1.8 -16.2,-5.1l-0.5,-0.3l39.8,-39.8l0.3,0.5c3.3,4.8 5.1,10.4 5.1,16.2c0,15.7 -12.8,28.5 -28.5,28.5zM24.8,62.9c4.5,3 9.7,4.6 15.2,4.6c15.2,0 27.5,-12.3 27.5,-27.5c0,-5.4 -1.6,-10.6 -4.6,-15.2zM16.9,56.7l-0.3,-0.5c-3.3,-4.8 -5.1,-10.4 -5.1,-16.2c0,-15.7 12.8,-28.5 28.5,-28.5c5.8,0 11.4,1.8 16.2,5.1l0.5,0.3zM40,12.5c-15.2,0 -27.5,12.3 -27.5,27.5c0,5.4 1.6,10.6 4.6,15.2l38.1,-38.1c-4.6,-3 -9.8,-4.6 -15.2,-4.6z" fill="#000000"></path></g></g></svg>